<svg width="40" height="40" viewBox="0 0 40 40" fill="none" xmlns="http://www.w3.org/2000/svg">
<path fill-rule="evenodd" clip-rule="evenodd" d="M19.9675 0.0631714C22.6709 0.0631714 25.2489 0.601828 27.6002 1.57786C30.0427 2.59163 32.2407 4.07732 34.0807 5.92126C35.9208 7.76522 37.4034 9.96776 38.4151 12.4153C39.3891 14.7716 39.9266 17.3549 39.9266 20.0639C39.9266 22.7729 39.3891 25.3562 38.4151 27.7125C37.4034 30.16 35.9208 32.3626 34.0807 34.2065C32.2407 36.0505 30.0427 37.5362 27.6002 38.55C25.2489 39.526 22.6709 40.0646 19.9675 40.0646C17.2643 40.0646 14.6863 39.526 12.3349 38.55C9.89253 37.5362 7.69455 36.0505 5.85442 34.2065C4.01435 32.3626 2.53176 30.16 1.52004 27.7125C0.546078 25.3562 0.00854492 22.7729 0.00854492 20.0639C0.00854492 17.3549 0.546078 14.7716 1.52004 12.4153C2.53173 9.96776 4.01435 7.76522 5.85442 5.92126C7.6945 4.07732 9.8925 2.59163 12.3349 1.57786C14.6863 0.601828 17.2643 0.0631714 19.9675 0.0631714ZM33.5677 6.43536C31.7943 4.65832 29.6763 3.2266 27.3229 2.24979C25.0571 1.30931 22.5728 0.790264 19.9675 0.790264C17.3623 0.790264 14.878 1.30931 12.6122 2.24979C10.2588 3.2266 8.14083 4.65832 6.36745 6.43536C4.5941 8.21245 3.16538 10.3349 2.1906 12.6932C1.25208 14.9637 0.734121 17.4532 0.734121 20.0639C0.734121 22.6747 1.25208 25.1641 2.1906 27.4346C3.16538 29.793 4.5941 31.9154 6.36745 33.6925C8.14083 35.4695 10.2589 36.9012 12.6122 37.878C14.878 38.8185 17.3623 39.3376 19.9675 39.3376C22.5728 39.3376 25.0571 38.8185 27.3229 37.878C29.6763 36.9012 31.7943 35.4695 33.5677 33.6925C35.3411 31.9154 36.7698 29.793 37.7446 27.4346C38.6831 25.1641 39.201 22.6747 39.201 20.0639C39.201 17.4532 38.6831 14.9637 37.7446 12.6932C36.7698 10.3349 35.3411 8.21245 33.5677 6.43536Z" fill="#080607"/>
<path fill-rule="evenodd" clip-rule="evenodd" d="M10.0451 11.3749L10.0439 11.3708C9.96866 11.1036 9.92486 10.8576 9.90899 10.6332C9.8923 10.3976 9.90631 10.1855 9.94687 9.99738C9.99492 9.77452 10.0789 9.58566 10.1873 9.43173C10.3046 9.26529 10.4507 9.13939 10.6114 9.05495C10.7001 9.00831 10.7935 8.97416 10.8889 8.95275C10.9584 8.93712 11.0291 8.92823 11.1 8.9261V8.92603H11.1026C11.1291 8.92528 11.1556 8.92552 11.1822 8.92668C11.2807 8.93109 11.3791 8.94873 11.4746 8.97974C11.568 9.01008 11.6589 9.05328 11.7445 9.10935C11.905 9.21442 12.0479 9.36523 12.1579 9.56256C12.2585 9.74311 12.3316 9.96281 12.3654 10.2222L12.3661 10.2286L12.3664 10.2303L12.367 10.235L12.3674 10.2385L12.3677 10.2414L12.3684 10.2467L12.3685 10.2478L12.3692 10.2543L12.3693 10.255L12.3699 10.2608L12.3702 10.2632L12.3706 10.2672L12.3711 10.2715L12.3713 10.2737L12.3719 10.2799L12.3719 10.2802L12.3726 10.2868L12.3727 10.2882L12.3732 10.2934L12.3735 10.2966L12.3738 10.3L12.3742 10.3051L12.3743 10.3066L12.3749 10.3133L12.3749 10.3136L12.3754 10.3199L12.3755 10.3221L12.3759 10.3266L12.3762 10.3307L12.3764 10.3333L12.3768 10.3392L12.3769 10.34L12.3773 10.3468L12.3774 10.3478L12.3777 10.3536L12.3779 10.3565L12.3781 10.3604L12.3784 10.3652L12.3785 10.3672L12.3789 10.3739V10.374L12.3792 10.3809L12.3793 10.3827L12.3795 10.3877L12.3797 10.3915L12.3798 10.3947L12.38 10.4003L12.3801 10.4016L12.3803 10.4085L12.3803 10.4092L12.3806 10.4155L12.3806 10.4181L12.3808 10.4225L12.3809 10.427L12.3809 10.4295L12.3811 10.4359V10.4365L12.3813 10.4435L12.3813 10.445L12.3814 10.4506L12.3814 10.454L12.3815 10.4577L12.3816 10.4631L12.3816 10.4648L12.3817 10.4719V10.4722L12.3817 10.4791L12.3817 10.4813V10.4863V10.4905V10.4934V10.4997L12.3817 10.5007L12.3817 10.5079V10.509L12.3816 10.5151L12.3816 10.5182L12.3815 10.5225L12.3814 10.5275V10.5297L12.3813 10.5369V10.537L12.3811 10.5444L12.381 10.5462L12.3809 10.5517L12.3809 10.5557L12.3808 10.5591L12.3806 10.5651L12.3805 10.5665L12.3803 10.5739L12.3803 10.5745L12.3801 10.5814L12.3799 10.584L12.3798 10.5888L12.3796 10.5936L12.3795 10.5963L12.3792 10.6031V10.6037L12.3788 10.6113L12.3788 10.6128L12.3784 10.6188L12.3783 10.6224L12.3781 10.6264L12.3778 10.6321L12.3776 10.6339L12.3772 10.6415L12.3772 10.6418L12.3768 10.6491L12.3766 10.6515L12.3763 10.6568L12.376 10.6613L12.3758 10.6644L12.3754 10.6711L12.3753 10.6721L12.3748 10.6796L12.3747 10.6809L12.3742 10.6872L12.374 10.6908L12.3737 10.6948L12.3732 10.7006L12.3731 10.7025L12.3725 10.7101L12.3724 10.7106L12.3719 10.7178L12.3716 10.7205L12.3712 10.7255L12.3708 10.7305L12.3705 10.7331L12.3699 10.7405L12.3698 10.7408L12.3691 10.7486L12.3689 10.7506L12.3684 10.7563L12.368 10.7606L12.3676 10.7641L12.367 10.7708L12.3669 10.7719L12.3661 10.7797L12.3659 10.7809L12.3652 10.7875L12.3649 10.7911L12.3644 10.7954L12.3638 10.8013L12.3635 10.8032L12.3626 10.8111L12.3626 10.8115L12.3618 10.819L12.3615 10.8216L12.3608 10.8269L12.3603 10.8316L12.3599 10.8349L12.3591 10.8417L12.3589 10.8429L12.3579 10.8508L12.3578 10.8517L12.3569 10.8587L12.3565 10.8619L12.3559 10.8668L12.3552 10.872L12.3548 10.8748L12.3539 10.8822L12.3538 10.8829L12.3527 10.8909L12.3525 10.8924L12.3516 10.899L12.3511 10.9027L12.3504 10.9071L12.3496 10.913L12.3493 10.9152L12.3482 10.9233L12.3481 10.9234L12.3469 10.9315L12.3444 10.9479L12.3435 10.9544L12.3432 10.9561L12.3419 10.9643L12.3419 10.9648C12.3389 10.9838 12.3357 11.003 12.3323 11.0223L12.3314 11.0279L12.3309 11.0307L12.3249 11.0643L12.3237 11.0705L12.3233 11.0728L12.3168 11.1068L12.3155 11.1136L12.3152 11.1153L12.3135 11.1238L12.3134 11.1244L12.3118 11.1324L12.3113 11.1353L12.3101 11.141L12.3091 11.1461L12.3083 11.1496L12.3068 11.1571L12.3066 11.1582L12.3047 11.1668L12.3045 11.168L12.3029 11.1755L12.3011 11.1842L12.2999 11.19L12.2992 11.1929L12.2975 11.201L12.2959 11.2085C12.2747 11.3055 12.2495 11.4055 12.2201 11.5084C12.1769 11.6604 12.1248 11.8183 12.0635 11.9815L12.0636 11.9815L12.059 11.9936L12.0587 11.9943V11.9944L12.0556 12.0025L12.054 12.0066L12.0525 12.0107L12.0494 12.0189L12.0493 12.019L12.0462 12.0271L12.0446 12.0313L12.043 12.0354L12.0399 12.0436L12.0399 12.0437L12.0367 12.0519L12.0351 12.056L12.0335 12.0602L12.0303 12.0684L12.0302 12.0685L12.027 12.0767L12.0254 12.0807L12.0237 12.085L12.0205 12.0932L12.0205 12.0933L12.0171 12.1016L12.0156 12.1056L12.0139 12.1099L12.0106 12.118L12.0105 12.1183L12.0072 12.1266L12.0056 12.1305L12.0039 12.135L12.0006 12.143L12.0005 12.1433L11.9971 12.1517L11.9955 12.1555L11.9937 12.16L11.9905 12.168L11.9903 12.1684L11.9869 12.1768L11.9853 12.1805L11.9834 12.1852L11.9802 12.1931L11.9799 12.1936L11.9765 12.202L11.975 12.2057L11.9729 12.2104L11.9697 12.2183L11.9695 12.2189L11.966 12.2273L11.9644 12.2309L11.9624 12.2358L11.9553 12.2527L11.9538 12.2562L11.9517 12.2612L11.9484 12.2689L11.9481 12.2697L11.9445 12.2781L11.943 12.2816L11.9408 12.2866L11.9335 12.3036L11.9325 12.306L11.9299 12.3121L11.9273 12.3182L11.9262 12.3207L11.9225 12.3292L11.9219 12.3304L11.9187 12.3378L11.9166 12.3426L11.915 12.3463L11.9112 12.3549V12.3549L11.9004 12.3795L11.8998 12.3806L11.896 12.3892L11.8949 12.3918L11.8922 12.3978L11.8894 12.4041L11.8883 12.4064L11.8845 12.415L11.8838 12.4165L11.8806 12.4236L11.8728 12.4409L11.8727 12.4412L11.8613 12.466L11.8609 12.4669L11.8569 12.4756L11.8556 12.4784L11.853 12.4842L11.8489 12.4929L11.8449 12.5016L11.8441 12.5033L11.8409 12.5103L11.8383 12.5158L11.8331 12.5271L11.8327 12.5277L11.8325 12.5283L11.8286 12.5365L11.8267 12.5408L11.8247 12.5449L11.8208 12.5533L11.8207 12.5534L11.8167 12.5619L11.8148 12.5658L11.8127 12.5704L11.8046 12.5873L11.8029 12.5909L11.8005 12.5959L11.7968 12.6035L11.7964 12.6044L11.7923 12.6129L11.7908 12.6161L11.7882 12.6215L11.784 12.63L11.7799 12.6385L11.7785 12.6413L11.7758 12.6471L11.7724 12.6539L11.7716 12.6556L11.7674 12.6642L11.7662 12.6666L11.7632 12.6728L11.76 12.6792L11.7589 12.6813L11.7547 12.69L11.7538 12.6919L11.7505 12.6985L11.7475 12.7046L11.7462 12.7071L11.7419 12.7157L11.7411 12.7173L11.7376 12.7243L11.7348 12.73L11.7333 12.733L11.729 12.7416L11.7284 12.7427L11.7247 12.7502L11.722 12.7554L11.7203 12.7588L11.7159 12.7675L11.7156 12.7682L11.7116 12.7761L11.7091 12.781L11.7071 12.7848L11.7028 12.7934L11.7026 12.7938L11.6983 12.8021L11.696 12.8066L11.6939 12.8107L11.6894 12.8194L11.6894 12.8195L11.6849 12.8281L11.6828 12.8322L11.6804 12.8368L11.6761 12.845L11.6759 12.8455L11.6714 12.8542L11.6695 12.8579L11.6669 12.8629L11.6628 12.8707L11.6623 12.8716L11.6578 12.8803L11.656 12.8836L11.6532 12.8891L11.6493 12.8965L11.6486 12.8978L11.644 12.9065L11.6425 12.9094L11.6393 12.9153L11.6356 12.9223L11.6347 12.924L11.63 12.9328L11.6287 12.9352L11.6254 12.9416L11.6218 12.9482L11.6207 12.9503L11.616 12.9591L11.6149 12.9611L11.6113 12.9679L11.6079 12.9741L11.6018 12.9854L11.6009 12.9871L11.597 12.9942L11.5939 13.0001L11.5923 13.003L11.5875 13.0118L11.5868 13.0131L11.5827 13.0207L11.5797 13.0261L11.5779 13.0295L11.573 13.0383L11.5725 13.0391L11.5682 13.0471L11.5654 13.0522L11.5633 13.056L11.5584 13.0648L11.5582 13.0652L11.5535 13.0737L11.5509 13.0783L11.5486 13.0825L11.5437 13.0914L11.5328 13.1108V14.507V31.0029H11.5189L11.5186 31.087C11.5186 31.1319 11.5096 31.1749 11.4934 31.2141C11.4774 31.2531 11.4541 31.2883 11.4255 31.318V31.3184L11.4214 31.3225C11.391 31.3529 11.3545 31.3776 11.3138 31.3944C11.2746 31.4105 11.2317 31.4195 11.1867 31.4195C11.1418 31.4195 11.0988 31.4105 11.0597 31.3944C11.019 31.3776 10.9824 31.3529 10.952 31.3225L10.9517 31.3221C10.9213 31.2917 10.8967 31.2551 10.8799 31.2143C10.8638 31.1751 10.8548 31.132 10.8548 31.087V31.0029H10.8406V13.1237L10.8285 13.1034C10.7244 12.9295 10.634 12.7708 10.5526 12.6173C10.4714 12.4638 10.3994 12.3155 10.3322 12.1621L10.3268 12.1497L10.3391 12.1439C10.4406 12.0961 10.5422 12.0547 10.6435 12.02C10.7436 11.9857 10.8439 11.9578 10.9438 11.9366L10.9554 11.9342L10.9597 11.9453C10.983 12.0058 11.0031 12.0565 11.0239 12.1075C11.0449 12.1591 11.0672 12.2122 11.0945 12.2768L11.1 12.2897V12.2897L11.1699 12.455L11.2481 12.2781L11.2496 12.2747L11.2511 12.2713L11.2527 12.2678L11.2542 12.2644L11.2557 12.2609L11.256 12.2601L11.2572 12.2575L11.2587 12.2541L11.2602 12.2507L11.2617 12.2473L11.2631 12.2439L11.2638 12.2422L11.2646 12.2405L11.2661 12.2371L11.2676 12.2336L11.2691 12.2303L11.2706 12.2269L11.2717 12.2244L11.2721 12.2235L11.2735 12.2201L11.275 12.2167L11.2765 12.2133L11.278 12.2099L11.2794 12.2067L11.2794 12.2065L11.2809 12.2032L11.2824 12.1997L11.2838 12.1964L11.2853 12.193L11.2867 12.1897L11.2871 12.189L11.2882 12.1863L11.2897 12.1829L11.2911 12.1795L11.2926 12.1762L11.294 12.1728L11.2947 12.1713L11.2954 12.1695L11.2969 12.1661L11.2983 12.1628L11.2997 12.1594L11.3012 12.156L11.3022 12.1537L11.3026 12.1527L11.304 12.1494L11.3054 12.146L11.3069 12.1427L11.3083 12.1394L11.3096 12.1361L11.3097 12.136L11.3111 12.1327L11.3125 12.1293L11.3139 12.126L11.3154 12.1227L11.3168 12.1194L11.3171 12.1187L11.3181 12.1161L11.3196 12.1127L11.321 12.1094L11.3224 12.1061L11.3237 12.1028L11.3244 12.1013L11.3251 12.0995L11.3265 12.0962L11.3279 12.0929L11.3293 12.0896L11.3307 12.0863L11.3317 12.0839L11.3321 12.083L11.3334 12.0797L11.3348 12.0764L11.3362 12.0731L11.3375 12.0699L11.3389 12.0666V12.0666L11.3402 12.0633L11.3416 12.06L11.343 12.0567L11.3443 12.0534L11.3457 12.0501L11.346 12.0493L11.3471 12.0468L11.3484 12.0436L11.3498 12.0403L11.3511 12.037L11.3525 12.0337L11.3531 12.0322L11.3538 12.0305L11.3552 12.0272L11.3565 12.0239L11.3579 12.0207L11.3592 12.0174L11.3601 12.015L11.3605 12.0141L11.3619 12.0108L11.3632 12.0076L11.3645 12.0043L11.3659 12.0011L11.3671 11.998L11.3672 11.9978L11.3685 11.9946L11.3698 11.9913L11.3711 11.9881L11.3725 11.9848L11.3738 11.9816L11.374 11.981L11.375 11.9784L11.3763 11.9751L11.3777 11.9719L11.379 11.9687L11.3802 11.9655L11.3808 11.9641L11.3816 11.9622L11.3829 11.959L11.3842 11.9558L11.3854 11.9526L11.3867 11.9493L11.3876 11.9472L11.388 11.9462L11.3893 11.9429L11.3906 11.9397L11.3919 11.9366L11.3931 11.9333L11.3943 11.9303L11.3944 11.9302L11.3956 11.9269L11.3969 11.9237L11.3982 11.9205L11.3994 11.9174L11.402 11.911L11.4032 11.9078L11.4044 11.9046L11.4057 11.9015L11.407 11.8983L11.4075 11.8969L11.4082 11.8951L11.4094 11.892L11.4107 11.8888L11.4119 11.8856L11.4132 11.8824L11.4141 11.8802L11.4144 11.8793L11.4156 11.8762L11.4169 11.873L11.418 11.8698L11.4193 11.8667L11.4205 11.8636L11.4217 11.8604L11.423 11.8573L11.4265 11.8481C11.5095 11.6333 11.5763 11.4337 11.6262 11.2484C11.6442 11.1825 11.66 11.1185 11.6739 11.0564L11.674 11.0556L11.6745 11.0534L11.6756 11.0482L11.6768 11.043L11.677 11.0423L11.6779 11.0379L11.679 11.0327L11.6798 11.029L11.6802 11.0276L11.6812 11.0224L11.6823 11.0173L11.6827 11.0158L11.6834 11.0121L11.6845 11.007L11.6854 11.0026L11.6855 11.0019L11.6866 10.9969L11.6876 10.9917L11.6881 10.9895L11.6887 10.9867L11.6907 10.9765H11.6907L11.6917 10.9715L11.6927 10.9664L11.6933 10.9635L11.6937 10.9614L11.6947 10.9563L11.6956 10.9513L11.6965 10.9463L11.6975 10.9413L11.6982 10.9378L11.6984 10.9363L11.6994 10.9313L11.7003 10.9263L11.7006 10.925L11.7029 10.9122L11.703 10.9114L11.7039 10.9065L11.7047 10.9016C11.707 10.8885 11.7092 10.8754 11.7113 10.8623L11.7114 10.8618L11.7121 10.8575L11.7137 10.8478L11.7144 10.843L11.718 10.8189L11.7188 10.8142C11.7224 10.7887 11.7257 10.7636 11.7286 10.7388C11.7326 10.7035 11.7359 10.669 11.7384 10.6354L11.7384 10.6347L11.7401 10.6083L11.7404 10.604L11.7408 10.5953L11.7411 10.591L11.7413 10.5866L11.7415 10.5823L11.7422 10.5651L11.7424 10.5609L11.7425 10.5573V10.5566L11.7427 10.5524L11.7428 10.5464L11.7429 10.5439L11.743 10.5397L11.7432 10.5312L11.7433 10.527L11.7433 10.5247L11.7434 10.5229L11.7434 10.5187L11.7435 10.5145L11.7435 10.514L11.7436 10.5062V10.5033V10.502V10.4979V10.4938V10.4927V10.4897V10.4856V10.4821V10.4814L11.7435 10.4774L11.7435 10.4733L11.7434 10.4716L11.7434 10.4693L11.7434 10.4652L11.7433 10.4612L11.7432 10.4606C11.7386 10.2236 11.6864 10.0308 11.5868 9.88227C11.4875 9.73419 11.3404 9.62958 11.1458 9.56863L11.126 9.56248L11.1056 9.56632L11.1 9.56732C10.918 9.60266 10.7825 9.68786 10.6936 9.82274C10.6033 9.95994 10.5605 10.1491 10.5651 10.3899C10.5671 10.4945 10.5786 10.6098 10.5994 10.7354C10.6202 10.8611 10.6505 10.9973 10.6901 11.144L10.6938 11.1575L10.6802 11.1611C10.5772 11.1882 10.4742 11.2204 10.3713 11.2576C10.2689 11.2946 10.1665 11.3367 10.0643 11.3838L10.0495 11.3906L10.0451 11.3749Z" fill="#080607"/>
<path fill-rule="evenodd" clip-rule="evenodd" d="M7.80841 12.7293C8.34336 12.051 8.95993 11.5072 9.60018 11.149C9.91024 10.9754 10.2258 10.8455 10.54 10.7651C10.846 10.6869 11.1509 10.6555 11.4483 10.6765C11.7553 10.698 12.0548 10.7755 12.34 10.9148C12.6127 11.0481 12.8725 11.2379 13.1132 11.4894C14.3938 12.8275 14.6363 16.2293 14.8703 19.5125C15.0403 21.8968 15.2058 24.2186 15.7606 25.6376C16.2027 26.7682 16.8929 27.3241 18.0322 26.8768C18.3361 26.7574 18.6455 26.561 18.9545 26.3035C19.2841 26.029 19.6134 25.6848 19.9354 25.2906C20.2782 24.8708 20.6131 24.3938 20.9314 23.8835C21.2683 23.3432 21.5866 22.7655 21.8759 22.1786L21.8848 22.1607L21.8789 22.1412C21.7115 21.5881 21.5795 21.0086 21.4865 20.4314C21.3925 19.8482 21.3382 19.2671 21.3271 18.7178C21.3187 18.2959 21.3357 17.8929 21.3797 17.5228C21.4223 17.1647 21.4904 16.8367 21.5852 16.5512C21.6822 16.2591 21.8071 16.0121 21.9614 15.8238C22.1084 15.6445 22.2821 15.5182 22.4835 15.457C22.5265 15.444 22.571 15.4338 22.6168 15.4266C22.662 15.4196 22.7086 15.4155 22.7563 15.4146C22.8751 15.4122 22.9852 15.4211 23.0867 15.4403C23.1907 15.4601 23.2858 15.491 23.3722 15.532C23.4926 15.5892 23.597 15.6668 23.686 15.7625C23.7776 15.8609 23.853 15.9787 23.9132 16.1134C23.973 16.2471 24.018 16.3976 24.0492 16.5627C24.0812 16.732 24.0987 16.9169 24.1026 17.115C24.1154 17.7507 23.9894 18.5199 23.7581 19.3501C23.5147 20.2242 23.1544 21.1663 22.7166 22.0919L22.708 22.11L22.714 22.1289C22.8963 22.7088 23.1129 23.2495 23.3589 23.7041C23.5843 24.1205 23.8342 24.4647 24.105 24.7004C24.194 24.7779 24.2854 24.844 24.3792 24.8973C24.4701 24.949 24.5633 24.9887 24.6583 25.0152C24.7571 25.0428 24.8578 25.0561 24.9602 25.054C25.0597 25.052 25.1612 25.0353 25.2643 25.0027C25.9694 24.7802 26.8622 23.5003 27.3855 22.7502C27.4444 22.6658 27.4989 22.5878 27.5456 22.5218L27.5458 22.5215C27.9965 21.8857 28.3411 21.3995 28.6872 21.1714C29.6013 20.5689 31.1871 22.6785 32.4344 24.5788C32.746 25.0535 33.0351 25.5129 33.2875 25.914C33.5736 26.3686 33.8127 26.7485 33.9813 26.9871C34.0107 27.025 34.0314 27.0674 34.0435 27.1114C34.056 27.1571 34.0592 27.2044 34.0535 27.2505C34.0477 27.2965 34.033 27.3416 34.0097 27.3826C33.9872 27.4222 33.9567 27.4581 33.9187 27.4877L33.9151 27.4903C33.8774 27.5191 33.8356 27.5391 33.7924 27.5506C33.7476 27.5626 33.7011 27.5656 33.6558 27.56C33.61 27.5543 33.5653 27.5396 33.5245 27.5164C33.4852 27.4941 33.4495 27.4638 33.4199 27.426L33.4194 27.4252C32.9963 26.7983 32.6217 26.227 32.2883 25.7101C31.9536 25.1912 31.6632 24.7318 31.4061 24.3251C31.0465 23.7559 30.7108 23.3019 30.4186 22.9482C30.0008 22.4426 29.6722 22.1424 29.4889 22.0039C28.9381 21.6731 28.6432 22.094 27.799 23.2988L27.4054 23.8592C27.0854 24.3122 26.7738 24.6737 26.472 24.9534C26.1538 25.2482 25.8461 25.4522 25.5503 25.577C25.3906 25.6443 25.2343 25.6885 25.0819 25.7112C24.9246 25.7346 24.7712 25.7353 24.6219 25.7152C24.4769 25.6957 24.3355 25.6566 24.1983 25.5998C24.0569 25.5413 23.9195 25.4639 23.7867 25.3697C23.4896 25.159 23.2147 24.8645 22.9646 24.5086C22.6981 24.129 22.4596 23.6792 22.2525 23.1861L22.2115 23.0885L22.1606 23.1812C21.8593 23.7306 21.5346 24.2613 21.1958 24.754C20.8687 25.2295 20.5284 25.6696 20.1829 26.0568C19.8556 26.4235 19.5239 26.7428 19.195 26.9994C18.8818 27.2437 18.5707 27.4317 18.2677 27.5504C16.6629 28.1795 15.7327 27.4303 15.1621 25.9685C14.5195 24.3225 14.3341 21.7713 14.1524 19.2704C13.9303 16.2142 13.7136 13.233 12.676 12.08C12.4779 11.8599 12.2644 11.6958 12.0403 11.5825C11.8056 11.4637 11.559 11.4005 11.3059 11.3867C11.0645 11.3735 10.8176 11.4054 10.5699 11.477C10.3132 11.5512 10.0553 11.6682 9.80177 11.8218C9.2703 12.1438 8.75656 12.6277 8.30931 13.2165C7.86714 13.7985 7.48989 14.4831 7.22457 15.2149L7.22306 15.2194C7.21057 15.266 7.18938 15.308 7.16181 15.344C7.13317 15.3815 7.09748 15.4126 7.05729 15.4357C7.01719 15.4589 6.97236 15.4743 6.92558 15.4804C6.8805 15.4863 6.83347 15.4836 6.78687 15.4711C6.74033 15.4585 6.69829 15.4373 6.66227 15.4096C6.62491 15.3809 6.59387 15.3451 6.57074 15.3049C6.54779 15.265 6.53247 15.2205 6.52633 15.1739C6.5203 15.1291 6.52284 15.0823 6.53499 15.0359L6.53535 15.0346C6.84812 14.1705 7.29005 13.3866 7.80841 12.7293ZM23.1901 18.7447C23.3508 18.1199 23.4376 17.5653 23.4318 17.1321C23.4301 17.0078 23.4208 16.8931 23.4035 16.789C23.3865 16.6874 23.3619 16.5962 23.3293 16.5165C23.2943 16.4312 23.2502 16.3586 23.1964 16.3001C23.1442 16.2432 23.0827 16.1996 23.0117 16.1703C22.9767 16.1558 22.9392 16.145 22.8995 16.1379C22.8601 16.1309 22.8185 16.1276 22.7749 16.1282C22.7599 16.1284 22.7451 16.1293 22.7306 16.1309C22.7161 16.1325 22.7019 16.1348 22.6882 16.1378C22.5748 16.1622 22.4776 16.2312 22.3961 16.3382C22.3098 16.4514 22.2409 16.607 22.1885 16.7971C22.1402 16.9723 22.1055 17.1782 22.0834 17.408C22.0607 17.6449 22.0517 17.9074 22.0554 18.188C22.0608 18.5848 22.0919 19.019 22.1465 19.4699C22.2009 19.9184 22.2786 20.3833 22.3774 20.8443L22.4119 21.0057L22.4746 20.8531C22.7785 20.1131 23.0239 19.3913 23.1901 18.7447Z" fill="#080607"/>
</svg>
