<svg width="57" height="80" viewBox="0 0 57 80" fill="none" xmlns="http://www.w3.org/2000/svg">
<path d="M57 28.1081C57 43.6318 28.5 80 28.5 80C28.5 80 0 43.6318 0 28.1081C0 12.5844 12.7599 0 28.5 0C44.2401 0 57 12.5844 57 28.1081Z" fill="#C4BCBC"/>
<path d="M55.5 28.1081C55.5 31.6282 53.8539 36.55 51.1934 42.1186C48.5602 47.6302 45.0354 53.5718 41.4899 59.0617C37.9478 64.5463 34.4031 69.5526 31.7425 73.1892C30.4127 75.0068 29.3051 76.4806 28.5306 77.499C28.5204 77.5125 28.5102 77.5259 28.5 77.5393C28.4898 77.5259 28.4796 77.5125 28.4694 77.499C27.6949 76.4806 26.5873 75.0068 25.2575 73.1892C22.5969 69.5526 19.0522 64.5463 15.5101 59.0617C11.9646 53.5718 8.43978 47.6302 5.80659 42.1186C3.14614 36.55 1.5 31.6282 1.5 28.1081C1.5 13.4324 13.5687 1.5 28.5 1.5C43.4313 1.5 55.5 13.4324 55.5 28.1081Z" stroke="black" stroke-opacity="0.1" stroke-width="3"/>
<path fill-rule="evenodd" clip-rule="evenodd" d="M28.5 13C30.5994 13 32.6014 13.4174 34.4274 14.1738C36.3242 14.9595 38.0312 16.1109 39.4601 17.5399C40.8891 18.9689 42.0405 20.6758 42.8262 22.5726C43.5826 24.3986 44 26.4006 44 28.5C44 30.5994 43.5826 32.6014 42.8262 34.4274C42.0405 36.3242 40.8891 38.0312 39.4601 39.4601C38.0312 40.8892 36.3242 42.0405 34.4274 42.8262C32.6014 43.5826 30.5994 44 28.5 44C26.4006 44 24.3986 43.5826 22.5726 42.8262C20.6758 42.0405 18.9689 40.8892 17.5399 39.4601C16.1109 38.0312 14.9595 36.3242 14.1738 34.4274C13.4174 32.6014 13 30.5994 13 28.5C13 26.4006 13.4174 24.3986 14.1738 22.5726C14.9595 20.6758 16.1109 18.9689 17.5399 17.5399C18.9688 16.1109 20.6758 14.9595 22.5726 14.1738C24.3986 13.4174 26.4006 13 28.5 13ZM39.0617 17.9383C37.6845 16.5611 36.0397 15.4516 34.2121 14.6946C32.4525 13.9657 30.5232 13.5635 28.5 13.5635C26.4768 13.5635 24.5475 13.9657 22.7879 14.6946C20.9603 15.4516 19.3155 16.5611 17.9383 17.9383C16.5611 19.3155 15.4516 20.9603 14.6946 22.7879C13.9657 24.5475 13.5635 26.4768 13.5635 28.5C13.5635 30.5233 13.9657 32.4525 14.6946 34.2121C15.4516 36.0398 16.5611 37.6846 17.9383 39.0617C19.3155 40.4389 20.9603 41.5485 22.7879 42.3055C24.5475 43.0343 26.4768 43.4366 28.5 43.4366C30.5232 43.4366 32.4525 43.0343 34.2121 42.3055C36.0397 41.5485 37.6845 40.4389 39.0617 39.0617C40.4389 37.6846 41.5484 36.0398 42.3054 34.2121C43.0343 32.4525 43.4365 30.5233 43.4365 28.5C43.4365 26.4768 43.0343 24.5475 42.3054 22.7879C41.5484 20.9603 40.4389 19.3155 39.0617 17.9383Z" fill="white"/>
<path fill-rule="evenodd" clip-rule="evenodd" d="M20.7083 21.7912L20.7074 21.7881C20.6488 21.5804 20.6146 21.3892 20.6023 21.2148C20.5893 21.0317 20.6002 20.8668 20.6318 20.7207C20.6692 20.5475 20.7346 20.4007 20.8191 20.281C20.9104 20.1517 21.0242 20.0538 21.1493 19.9882C21.2184 19.952 21.2911 19.9254 21.3654 19.9088C21.4196 19.8967 21.4747 19.8897 21.5298 19.8881V19.888H21.5319C21.5525 19.8874 21.5732 19.8876 21.5938 19.8885C21.6706 19.892 21.7472 19.9057 21.8216 19.9298C21.8944 19.9534 21.9651 19.9869 22.0318 20.0305C22.1568 20.1122 22.2681 20.2294 22.3537 20.3827C22.4321 20.523 22.489 20.6938 22.5153 20.8954L22.5159 20.9004L22.5161 20.9017L22.5166 20.9053L22.5169 20.9081L22.5171 20.9103L22.5177 20.9145L22.5177 20.9153L22.5183 20.9203L22.5184 20.9208L22.5189 20.9253L22.5191 20.9273L22.5194 20.9304L22.5198 20.9337L22.5199 20.9354L22.5204 20.9402L22.5204 20.9405L22.5209 20.9456L22.5211 20.9467L22.5214 20.9507L22.5217 20.9532L22.5219 20.9559L22.5222 20.9598L22.5223 20.961L22.5227 20.9662L22.5227 20.9664L22.5231 20.9713L22.5232 20.973L22.5235 20.9765L22.5238 20.9797L22.5239 20.9818L22.5242 20.9863L22.5243 20.987L22.5246 20.9922L22.5247 20.993L22.5249 20.9975L22.5251 20.9998L22.5252 21.0028L22.5255 21.0065L22.5255 21.0081L22.5258 21.0133V21.0134L22.5261 21.0187L22.5262 21.0201L22.5263 21.024L22.5265 21.0269L22.5266 21.0294L22.5267 21.0338L22.5268 21.0348L22.527 21.0402L22.527 21.0407L22.5271 21.0456L22.5272 21.0476L22.5273 21.051L22.5274 21.0546L22.5274 21.0565L22.5276 21.0615V21.0619L22.5277 21.0674L22.5277 21.0685L22.5278 21.0729L22.5278 21.0755L22.5279 21.0784L22.5279 21.0826L22.528 21.0839L22.528 21.0895V21.0896L22.528 21.095L22.528 21.0968V21.1006V21.1039V21.1062V21.111L22.528 21.1118L22.528 21.1174V21.1182L22.528 21.123L22.5279 21.1254L22.5279 21.1287L22.5278 21.1327V21.1344L22.5277 21.1399V21.1401L22.5276 21.1458L22.5275 21.1472L22.5274 21.1515L22.5274 21.1545L22.5273 21.1572L22.5272 21.1619L22.5271 21.163L22.527 21.1687L22.5269 21.1692L22.5268 21.1745L22.5267 21.1766L22.5265 21.1803L22.5264 21.184L22.5263 21.1861L22.5261 21.1914V21.1919L22.5258 21.1978L22.5257 21.1989L22.5255 21.2036L22.5254 21.2064L22.5252 21.2095L22.525 21.2139L22.5249 21.2154L22.5246 21.2213L22.5245 21.2215L22.5242 21.2272L22.5241 21.229L22.5238 21.2331L22.5236 21.2366L22.5234 21.2391L22.5231 21.2442L22.5231 21.245L22.5227 21.2509L22.5226 21.2519L22.5222 21.2568L22.522 21.2595L22.5218 21.2627L22.5214 21.2672L22.5213 21.2686L22.5208 21.2746L22.5208 21.2749L22.5204 21.2805L22.5202 21.2827L22.5199 21.2865L22.5195 21.2904L22.5193 21.2925L22.5188 21.2982L22.5188 21.2984L22.5182 21.3045L22.5181 21.306L22.5177 21.3105L22.5174 21.3138L22.5171 21.3165L22.5166 21.3217L22.5165 21.3226L22.5159 21.3286L22.5158 21.3296L22.5152 21.3347L22.5149 21.3375L22.5146 21.3408L22.5141 21.3454L22.5139 21.3469L22.5132 21.3531L22.5132 21.3534L22.5125 21.3592L22.5123 21.3612L22.5118 21.3654L22.5114 21.369L22.511 21.3715L22.5104 21.3768L22.5103 21.3777L22.5095 21.3839L22.5094 21.3846L22.5087 21.3901L22.5084 21.3925L22.5079 21.3963L22.5074 21.4004L22.5071 21.4026L22.5064 21.4083L22.5063 21.4088L22.5055 21.4151L22.5053 21.4163L22.5046 21.4214L22.5042 21.4242L22.5037 21.4277L22.503 21.4322L22.5028 21.434L22.5019 21.4403L22.5019 21.4403L22.5009 21.4466L22.499 21.4593L22.4983 21.4644L22.498 21.4657L22.4971 21.4721L22.497 21.4725C22.4947 21.4873 22.4922 21.5022 22.4896 21.5172L22.4888 21.5215L22.4885 21.5237L22.4838 21.5499L22.4829 21.5547L22.4825 21.5564L22.4775 21.5828L22.4765 21.5881L22.4762 21.5895L22.4749 21.5961L22.4748 21.5965L22.4736 21.6028L22.4732 21.605L22.4722 21.6095L22.4715 21.6134L22.4709 21.6161L22.4697 21.6219L22.4695 21.6228L22.4681 21.6295L22.4679 21.6305L22.4667 21.6363L22.4653 21.643L22.4643 21.6475L22.4638 21.6498L22.4625 21.6561L22.4612 21.6619C22.4447 21.7373 22.4251 21.815 22.4022 21.895C22.3685 22.0131 22.3279 22.1359 22.2802 22.2626L22.2803 22.2627L22.2767 22.2721L22.2765 22.2726V22.2727L22.2741 22.279L22.2728 22.2822L22.2717 22.2854L22.2692 22.2918L22.2692 22.2918L22.2668 22.2981L22.2655 22.3014L22.2643 22.3046L22.2618 22.3109L22.2618 22.311L22.2593 22.3174L22.2581 22.3205L22.2568 22.3238L22.2543 22.3302L22.2543 22.3302L22.2518 22.3367L22.2506 22.3398L22.2493 22.3431L22.2467 22.3494L22.2467 22.3496L22.2441 22.356L22.2429 22.3591L22.2416 22.3625L22.2391 22.3688L22.239 22.369L22.2364 22.3755L22.2351 22.3785L22.2338 22.3819L22.2312 22.3881L22.2311 22.3884L22.2285 22.3949L22.2273 22.3979L22.2259 22.4014L22.2234 22.4076L22.2232 22.4079L22.2205 22.4145L22.2193 22.4174L22.2178 22.421L22.2153 22.4271L22.2151 22.4275L22.2125 22.4341L22.2113 22.4369L22.2097 22.4406L22.2072 22.4467L22.207 22.4471L22.2043 22.4537L22.2031 22.4565L22.2015 22.4603L22.1959 22.4734L22.1948 22.4762L22.1931 22.48L22.1906 22.486L22.1904 22.4866L22.1875 22.4932L22.1864 22.4959L22.1847 22.4998L22.179 22.513L22.1782 22.5148L22.1761 22.5196L22.1741 22.5243L22.1733 22.5263L22.1704 22.5329L22.17 22.5338L22.1675 22.5395L22.1658 22.5433L22.1645 22.5462L22.1616 22.5528V22.5529L22.1532 22.572L22.1528 22.5728L22.1498 22.5795L22.1489 22.5815L22.1468 22.5862L22.1446 22.5911L22.1438 22.5929L22.1408 22.5996L22.1403 22.6007L22.1378 22.6063L22.1317 22.6197L22.1316 22.6199L22.1228 22.6392L22.1224 22.6399L22.1194 22.6467L22.1183 22.6489L22.1163 22.6534L22.1131 22.6601L22.11 22.6669L22.1094 22.6682L22.1068 22.6736L22.1049 22.6779L22.1008 22.6867L22.1005 22.6872L22.1003 22.6876L22.0973 22.694L22.0958 22.6973L22.0942 22.7006L22.0912 22.707L22.0911 22.7072L22.088 22.7137L22.0865 22.7168L22.0849 22.7203L22.0786 22.7335L22.0773 22.7363L22.0754 22.7401L22.0726 22.746L22.0722 22.7467L22.069 22.7534L22.0678 22.7558L22.0658 22.76L22.0626 22.7667L22.0594 22.7733L22.0583 22.7754L22.0561 22.7799L22.0535 22.7853L22.0529 22.7866L22.0496 22.7932L22.0487 22.7951L22.0463 22.7999L22.0439 22.8049L22.043 22.8066L22.0397 22.8133L22.039 22.8148L22.0364 22.8199L22.0341 22.8246L22.0331 22.8266L22.0298 22.8333L22.0292 22.8345L22.0264 22.84L22.0242 22.8444L22.0231 22.8467L22.0197 22.8534L22.0193 22.8543L22.0163 22.86L22.0143 22.8641L22.0129 22.8668L22.0095 22.8735L22.0092 22.8741L22.0061 22.8802L22.0042 22.884L22.0027 22.8869L21.9993 22.8937L21.9991 22.8939L21.9958 22.9004L21.994 22.9039L21.9924 22.9071L21.9889 22.9138L21.9889 22.9139L21.9854 22.9206L21.9837 22.9238L21.9819 22.9274L21.9785 22.9338L21.9784 22.9342L21.9748 22.9409L21.9734 22.9438L21.9713 22.9477L21.9681 22.9538L21.9678 22.9544L21.9642 22.9612L21.9629 22.9638L21.9607 22.968L21.9576 22.9738L21.9571 22.9748L21.9535 22.9816L21.9523 22.9838L21.9499 22.9884L21.947 22.9939L21.9463 22.9952L21.9427 23.002L21.9416 23.0039L21.939 23.0088L21.9362 23.014L21.9354 23.0156L21.9317 23.0224L21.9308 23.024L21.928 23.0293L21.9254 23.0341L21.9207 23.0429L21.92 23.0442L21.9169 23.0497L21.9145 23.0543L21.9132 23.0566L21.9095 23.0634L21.909 23.0644L21.9057 23.0703L21.9034 23.0745L21.902 23.0771L21.8982 23.084L21.8979 23.0846L21.8945 23.0908L21.8923 23.0948L21.8906 23.0977L21.8869 23.1046L21.8867 23.1049L21.883 23.1115L21.881 23.115L21.8792 23.1183L21.8754 23.1252L21.8669 23.1403V24.2254V37.0457H21.8561L21.8559 37.111C21.8559 37.1459 21.8489 37.1793 21.8363 37.2098C21.8237 37.24 21.8056 37.2674 21.7833 37.2905V37.2908L21.7802 37.294C21.7565 37.3177 21.728 37.3368 21.6963 37.3499C21.6658 37.3624 21.6324 37.3694 21.5974 37.3694C21.5624 37.3694 21.5289 37.3624 21.4984 37.3499C21.4668 37.3368 21.4383 37.3177 21.4146 37.294L21.4143 37.2937C21.3907 37.2701 21.3715 37.2416 21.3584 37.2099C21.3459 37.1794 21.3389 37.146 21.3389 37.111V37.0457H21.3279V23.1504L21.3184 23.1346C21.2373 22.9994 21.1669 22.8761 21.1036 22.7568C21.0403 22.6375 20.9842 22.5222 20.9319 22.403L20.9277 22.3934L20.9373 22.3889C21.0163 22.3518 21.0954 22.3196 21.1743 22.2926C21.2523 22.2659 21.3304 22.2442 21.4082 22.2278L21.4173 22.2259L21.4206 22.2345C21.4387 22.2815 21.4544 22.3209 21.4706 22.3606C21.487 22.4007 21.5043 22.4419 21.5256 22.4922L21.5298 22.5022V22.5022L21.5843 22.6307L21.6452 22.4932L21.6464 22.4905L21.6476 22.4879L21.6487 22.4852L21.6499 22.4825L21.6511 22.4798L21.6514 22.4792L21.6523 22.4772L21.6534 22.4745L21.6546 22.4719L21.6557 22.4692L21.6569 22.4666L21.6574 22.4653L21.6581 22.4639L21.6592 22.4613L21.6604 22.4586L21.6616 22.456L21.6627 22.4534L21.6635 22.4515L21.6639 22.4507L21.665 22.4481L21.6662 22.4454L21.6673 22.4428L21.6685 22.4402L21.6695 22.4376L21.6696 22.4376L21.6708 22.435L21.6719 22.4323L21.673 22.4297L21.6742 22.4271L21.6753 22.4244L21.6755 22.4239L21.6764 22.4218L21.6775 22.4192L21.6787 22.4166L21.6798 22.414L21.6809 22.4114L21.6815 22.4102L21.682 22.4087L21.6832 22.4061L21.6843 22.4035L21.6854 22.4009L21.6865 22.3983L21.6873 22.3965L21.6876 22.3957L21.6887 22.3931L21.6898 22.3905L21.691 22.3879L21.6921 22.3854L21.6931 22.3828L21.6932 22.3828L21.6943 22.3802L21.6954 22.3776L21.6964 22.375L21.6976 22.3724L21.6987 22.3698L21.6989 22.3693L21.6997 22.3673L21.7009 22.3647L21.7019 22.3621L21.703 22.3595L21.7041 22.357L21.7046 22.3557L21.7052 22.3544L21.7063 22.3518L21.7073 22.3492L21.7084 22.3467L21.7095 22.3441L21.7103 22.3422L21.7106 22.3416L21.7116 22.339L21.7127 22.3364L21.7138 22.3339L21.7148 22.3314L21.7159 22.3288V22.3288L21.7169 22.3262L21.718 22.3237L21.7191 22.3211L21.7201 22.3186L21.7212 22.316L21.7215 22.3154L21.7223 22.3134L21.7233 22.3109L21.7244 22.3084L21.7254 22.3058L21.7265 22.3033L21.727 22.3021L21.7275 22.3007L21.7286 22.2982L21.7296 22.2956L21.7307 22.2931L21.7317 22.2905L21.7324 22.2887L21.7328 22.288L21.7338 22.2855L21.7348 22.2829L21.7359 22.2804L21.7369 22.2779L21.7379 22.2755L21.7379 22.2753L21.739 22.2728L21.74 22.2703L21.741 22.2678L21.742 22.2653L21.7431 22.2628L21.7432 22.2623L21.744 22.2602L21.7451 22.2577L21.7461 22.2552L21.7471 22.2527L21.7481 22.2502L21.7486 22.2491L21.7491 22.2477L21.7502 22.2452L21.7512 22.2427L21.7521 22.2402L21.7531 22.2377L21.7539 22.236L21.7541 22.2352L21.7552 22.2327L21.7561 22.2302L21.7571 22.2277L21.7581 22.2252L21.7591 22.2229L21.7591 22.2228L21.7601 22.2203L21.7611 22.2178L21.7621 22.2153L21.7631 22.2128L21.765 22.2079L21.766 22.2054L21.7669 22.2029L21.7679 22.2005L21.7689 22.198L21.7694 22.1969L21.7699 22.1956L21.7708 22.1931L21.7718 22.1906L21.7728 22.1881L21.7737 22.1857L21.7744 22.1839L21.7747 22.1832L21.7756 22.1808L21.7766 22.1784L21.7775 22.1759L21.7785 22.1735L21.7794 22.171L21.7804 22.1686L21.7814 22.1661L21.7841 22.159C21.8487 21.9921 21.9008 21.8369 21.9397 21.6929C21.9536 21.6417 21.966 21.5919 21.9768 21.5437L21.9769 21.5431L21.9773 21.5413L21.9782 21.5373L21.9791 21.5333L21.9792 21.5327L21.9799 21.5293L21.9808 21.5253L21.9814 21.5224L21.9817 21.5213L21.9825 21.5173L21.9834 21.5133L21.9836 21.5121L21.9842 21.5093L21.985 21.5053L21.9857 21.5019L21.9859 21.5014L21.9867 21.4974L21.9875 21.4934L21.9878 21.4917L21.9883 21.4895L21.9899 21.4816H21.9899L21.9907 21.4777L21.9914 21.4738L21.9919 21.4715L21.9922 21.4699L21.993 21.4659L21.9937 21.462L21.9944 21.4582L21.9952 21.4542L21.9957 21.4515L21.9959 21.4504L21.9966 21.4465L21.9974 21.4426L21.9976 21.4416L21.9994 21.4316L21.9994 21.431L22.0002 21.4272L22.0008 21.4234C22.0026 21.4132 22.0043 21.403 22.006 21.3929L22.006 21.3925L22.0066 21.3891L22.0078 21.3816L22.0083 21.3779L22.0112 21.3591L22.0117 21.3554C22.0146 21.3356 22.0171 21.3162 22.0194 21.2969C22.0226 21.2695 22.0251 21.2426 22.027 21.2165L22.027 21.216L22.0284 21.1955L22.0286 21.1921L22.0289 21.1853L22.0291 21.182L22.0293 21.1786L22.0294 21.1753L22.03 21.1619L22.0301 21.1586L22.0302 21.1558V21.1553L22.0303 21.152L22.0305 21.1473L22.0306 21.1454L22.0306 21.1421L22.0308 21.1355L22.0308 21.1323L22.0309 21.1305L22.0309 21.1291L22.0309 21.1258L22.031 21.1226L22.031 21.1222L22.0311 21.1161V21.1138V21.1129V21.1096V21.1064V21.1056V21.1033V21.1001V21.0974V21.0969L22.031 21.0937L22.031 21.0905L22.031 21.0892L22.0309 21.0874L22.0309 21.0842L22.0308 21.0811L22.0308 21.0806C22.0272 20.8965 21.9866 20.7466 21.9089 20.6312C21.8316 20.5161 21.7171 20.4348 21.5655 20.3874L21.5501 20.3827L21.5342 20.3856L21.5298 20.3864C21.3881 20.4139 21.2826 20.4801 21.2134 20.5849C21.143 20.6916 21.1096 20.8385 21.1133 21.0257C21.1148 21.107 21.1238 21.1966 21.14 21.2943C21.1561 21.3919 21.1798 21.4978 21.2106 21.6118L21.2135 21.6223L21.2029 21.6251C21.1227 21.6461 21.0424 21.6712 20.9623 21.7C20.8826 21.7288 20.8028 21.7615 20.7232 21.7981L20.7118 21.8034L20.7083 21.7912Z" fill="white"/>
<path fill-rule="evenodd" clip-rule="evenodd" d="M18.9665 22.8435C19.3831 22.3163 19.8633 21.8937 20.3619 21.6153C20.6034 21.4804 20.8492 21.3794 21.0939 21.317C21.3322 21.2562 21.5696 21.2318 21.8013 21.2481C22.0403 21.2648 22.2736 21.3251 22.4957 21.4333C22.7081 21.5369 22.9104 21.6844 23.0979 21.8799C24.0952 22.9198 24.2841 25.5636 24.4663 28.1152C24.5987 29.9683 24.7276 31.7727 25.1597 32.8755C25.5039 33.7542 26.0415 34.1862 26.9288 33.8385C27.1655 33.7458 27.4064 33.5932 27.6471 33.3931C27.9038 33.1797 28.1602 32.9122 28.411 32.6058C28.678 32.2796 28.9388 31.9089 29.1867 31.5123C29.449 31.0924 29.697 30.6434 29.9223 30.1873L29.9292 30.1733L29.9246 30.1582C29.7942 29.7284 29.6914 29.278 29.619 28.8294C29.5458 28.3761 29.5035 27.9245 29.4949 27.4976C29.4883 27.1697 29.5015 26.8565 29.5358 26.5689C29.569 26.2906 29.622 26.0357 29.6959 25.8138C29.7714 25.5868 29.8687 25.3948 29.9888 25.2485C30.1033 25.1091 30.2386 25.011 30.3955 24.9634C30.4289 24.9533 30.4636 24.9453 30.4993 24.9398C30.5345 24.9343 30.5707 24.9312 30.6079 24.9304C30.7005 24.9286 30.7862 24.9355 30.8653 24.9504C30.9462 24.9658 31.0203 24.9898 31.0876 25.0217C31.1814 25.0662 31.2626 25.1264 31.332 25.2008C31.4033 25.2773 31.462 25.3688 31.5089 25.4736C31.5554 25.5775 31.5905 25.6944 31.6148 25.8227C31.6397 25.9543 31.6533 26.098 31.6564 26.2519C31.6664 26.746 31.5683 27.3438 31.3881 27.989C31.1985 28.6684 30.918 29.4005 30.577 30.1199L30.5703 30.1339L30.575 30.1486C30.7169 30.5993 30.8856 31.0195 31.0772 31.3729C31.2527 31.6964 31.4474 31.9639 31.6583 32.1472C31.7276 32.2074 31.7988 32.2587 31.8718 32.3001C31.9426 32.3403 32.0152 32.3712 32.0892 32.3918C32.1661 32.4132 32.2445 32.4236 32.3243 32.422C32.4018 32.4204 32.4809 32.4074 32.5611 32.3821C33.1102 32.2092 33.8056 31.2145 34.2132 30.6315C34.259 30.5659 34.3014 30.5053 34.3378 30.454L34.338 30.4538C34.689 29.9596 34.9573 29.5818 35.2269 29.4045C35.9388 28.9362 37.1738 30.5758 38.1452 32.0526C38.3879 32.4216 38.613 32.7786 38.8096 33.0903C39.0324 33.4436 39.2187 33.7389 39.3499 33.9243C39.3729 33.9537 39.389 33.9867 39.3983 34.0209C39.4081 34.0564 39.4106 34.0932 39.4061 34.129C39.4017 34.1648 39.3902 34.1998 39.372 34.2317C39.3545 34.2624 39.3308 34.2903 39.3012 34.3133L39.2984 34.3154C39.269 34.3378 39.2365 34.3533 39.2028 34.3622C39.1679 34.3716 39.1317 34.3739 39.0964 34.3695C39.0608 34.3651 39.0259 34.3537 38.9941 34.3357C38.9636 34.3183 38.9358 34.2948 38.9127 34.2654L38.9123 34.2648C38.5828 33.7776 38.2911 33.3336 38.0314 32.9319C37.7707 32.5286 37.5446 32.1716 37.3444 31.8554C37.0643 31.4131 36.8029 31.0603 36.5753 30.7854C36.25 30.3924 35.994 30.1591 35.8513 30.0515C35.4223 29.7944 35.1926 30.1215 34.5352 31.0578L34.2286 31.4934C33.9794 31.8454 33.7368 32.1264 33.5017 32.3438C33.2539 32.5729 33.0142 32.7314 32.7839 32.8284C32.6595 32.8807 32.5378 32.9151 32.4191 32.9327C32.2966 32.9509 32.1771 32.9514 32.0608 32.9358C31.9479 32.9207 31.8378 32.8903 31.7309 32.8461C31.6208 32.8006 31.5138 32.7405 31.4104 32.6673C31.179 32.5035 30.9649 32.2747 30.7702 31.998C30.5626 31.7031 30.3769 31.3535 30.2155 30.9702L30.1837 30.8944L30.144 30.9665C29.9093 31.3934 29.6565 31.8059 29.3926 32.1888C29.1378 32.5583 28.8728 32.9004 28.6037 33.2013C28.3489 33.4863 28.0905 33.7344 27.8344 33.9338C27.5905 34.1237 27.3482 34.2698 27.1122 34.3621C25.8624 34.851 25.138 34.2688 24.6935 33.1327C24.1931 31.8534 24.0487 29.8707 23.9072 27.927C23.7342 25.5518 23.5655 23.2349 22.7574 22.3389C22.6031 22.1678 22.4369 22.0403 22.2623 21.9522C22.0795 21.8599 21.8874 21.8108 21.6904 21.8C21.5024 21.7898 21.3101 21.8146 21.1172 21.8702C20.9172 21.9279 20.7164 22.0188 20.5189 22.1382C20.105 22.3884 19.7049 22.7645 19.3566 23.2221C19.0122 23.6745 18.7184 24.2065 18.5118 24.7752L18.5106 24.7787C18.5009 24.815 18.4844 24.8476 18.4629 24.8756C18.4406 24.9047 18.4128 24.9289 18.3815 24.9469C18.3503 24.9649 18.3154 24.9769 18.279 24.9816C18.2438 24.9862 18.2072 24.9841 18.1709 24.9744C18.1347 24.9646 18.1019 24.9481 18.0739 24.9266C18.0448 24.9043 18.0206 24.8765 18.0026 24.8452C17.9847 24.8142 17.9728 24.7796 17.968 24.7434C17.9633 24.7086 17.9653 24.6722 17.9748 24.6361L17.975 24.6351C18.2186 23.9635 18.5628 23.3543 18.9665 22.8435ZM30.9458 27.5185C31.0709 27.033 31.1385 26.6019 31.134 26.2653C31.1327 26.1687 31.1254 26.0795 31.1119 25.9986C31.0987 25.9197 31.0796 25.8488 31.0541 25.7868C31.0269 25.7205 30.9925 25.6641 30.9506 25.6186C30.91 25.5744 30.8621 25.5405 30.8069 25.5177C30.7795 25.5065 30.7503 25.4981 30.7194 25.4926C30.6887 25.4871 30.6564 25.4846 30.6224 25.485C30.6108 25.4852 30.5992 25.4859 30.5879 25.4871C30.5766 25.4884 30.5656 25.4902 30.5549 25.4925C30.4665 25.5114 30.3909 25.5651 30.3274 25.6482C30.2602 25.7362 30.2065 25.8571 30.1657 26.0049C30.1281 26.1411 30.101 26.301 30.0839 26.4797C30.0662 26.6638 30.0591 26.8677 30.0621 27.0859C30.0663 27.3942 30.0905 27.7317 30.133 28.0821C30.1754 28.4307 30.2359 28.792 30.3128 29.1502L30.3397 29.2757L30.3885 29.1571C30.6252 28.582 30.8163 28.0211 30.9458 27.5185Z" fill="white"/>
</svg>
