<svg width="79" height="96" viewBox="0 0 79 96" fill="none" xmlns="http://www.w3.org/2000/svg">
<path fill-rule="evenodd" clip-rule="evenodd" d="M28.277 95.1018H17.4724V86.8436H18.6319V94.2269H22.2986V86.8436H23.451V94.2269H27.1176V86.8436H28.277V95.1018ZM35.8517 95.1018V86.8436H37.0112V90.3446H38.8892C39.8743 90.3446 40.6401 90.5431 41.1869 90.9403C41.736 91.3373 42.0092 91.9034 42.0092 92.6368C42.0092 93.3975 41.7218 93.9971 41.1469 94.4394C40.5716 94.8817 39.7871 95.1018 38.7926 95.1018H35.8517ZM37.0112 91.2194V94.2269H38.6394C39.3252 94.2269 39.8555 94.0913 40.2277 93.8239C40.6 93.5547 40.7886 93.1773 40.7886 92.6938C40.7886 91.7107 40.0723 91.2194 38.6394 91.2194H37.0112ZM52.4235 91.243H50.1165V95.1018H48.9569V86.8436H50.1165V90.3741H52.4634C52.6026 89.2222 53.0739 88.3218 53.8798 87.6751C54.6833 87.0283 55.7321 86.704 57.021 86.704C58.3501 86.704 59.413 87.0835 60.207 87.8422C61.0011 88.601 61.3972 89.6094 61.3972 90.8694C61.3972 92.2317 60.9894 93.3011 60.1764 94.0776C59.361 94.8521 58.2512 95.2393 56.8468 95.2393C55.5317 95.2393 54.4736 94.8756 53.6747 94.1464C52.8759 93.4172 52.4589 92.448 52.4235 91.243ZM56.9786 87.5808C55.9346 87.5808 55.117 87.8795 54.5254 88.4791C53.9339 89.0766 53.6372 89.9003 53.6372 90.9501C53.6372 92.0351 53.9175 92.8785 54.4806 93.4741C55.0415 94.0717 55.8309 94.3705 56.8468 94.3705C57.9071 94.3705 58.7272 94.0756 59.3092 93.4898C59.8912 92.902 60.1836 92.0725 60.1836 91.0011C60.1836 89.8964 59.903 89.0491 59.3445 88.4614C58.7837 87.8736 57.9967 87.5808 56.9786 87.5808Z" fill="#080607"/>
<path fill-rule="evenodd" clip-rule="evenodd" d="M28.2774 95.1293H17.4449V86.8158H18.6595V94.1994H22.2712V86.8158H23.4787V94.1994H27.0904V86.8158H28.305V95.1293H28.2774ZM17.5 95.0742H28.2499V86.8709H27.1456V94.2546H23.4236V86.8709H22.3263V94.2546H18.6044V86.8709H17.5V95.0742ZM35.8247 95.1018V86.8158H37.0393V90.3169H38.89C39.3844 90.3169 39.8245 90.3669 40.21 90.4668C40.5964 90.567 40.9277 90.7174 41.2038 90.9179C41.4818 91.1189 41.6902 91.3631 41.8292 91.6497C41.9682 91.9365 42.0376 92.2656 42.0376 92.6367C42.0376 93.021 41.9647 93.3651 41.8192 93.6693C41.6736 93.9736 41.4551 94.2374 41.1643 94.4611C40.874 94.6844 40.5309 94.8517 40.1352 94.9629C39.7403 95.0739 39.293 95.1293 38.7934 95.1293H35.8247V95.1018ZM35.8798 86.8709V95.0742H38.7934C39.2882 95.0742 39.7306 95.0196 40.1203 94.9099C40.5091 94.8006 40.846 94.6366 41.1307 94.4176C41.4148 94.1991 41.6279 93.9418 41.7697 93.6456C41.9116 93.3492 41.9826 93.013 41.9826 92.6367C41.9826 92.2739 41.915 91.9527 41.7797 91.6736C41.6448 91.3953 41.4421 91.1581 41.1714 90.9624C40.9009 90.7659 40.5757 90.6183 40.1962 90.52C39.8158 90.4213 39.3803 90.372 38.89 90.372H36.9843V86.8709H35.8798ZM37.0393 91.2468V94.1994H38.6401C38.9804 94.1994 39.2818 94.1659 39.5439 94.0994C39.8059 94.033 40.0289 93.9335 40.2124 93.8018C40.3951 93.6696 40.5327 93.5109 40.6244 93.3263C40.7158 93.142 40.7618 92.9309 40.7618 92.6937C40.7618 92.2118 40.5867 91.8507 40.2366 91.6106C39.8831 91.3681 39.3509 91.2468 38.6401 91.2468H37.0393ZM36.9843 94.227V91.1918H38.6401C39.3621 91.1918 39.9046 91.3162 40.2676 91.5652C40.6337 91.8163 40.817 92.1926 40.817 92.6937C40.817 92.9393 40.7689 93.1585 40.6736 93.3506C40.578 93.5434 40.4346 93.7088 40.2446 93.8463C40.0552 93.9822 39.8259 94.0846 39.5573 94.1528C39.2905 94.2204 38.9846 94.2546 38.6401 94.2546H36.9843V94.227ZM52.398 91.2704H50.1451V95.1293H48.9306V86.8158H50.1451V90.3464H52.4404C52.5116 89.7768 52.6644 89.2683 52.8988 88.8215C53.1366 88.3684 53.4583 87.9788 53.8638 87.6534C54.2682 87.3279 54.7345 87.0835 55.2618 86.9204C55.7881 86.7577 56.3753 86.6762 57.0223 86.6762C58.3587 86.6762 59.428 87.0582 60.2274 87.8221C60.6274 88.2043 60.9272 88.6495 61.1269 89.1577C61.3264 89.6654 61.426 90.236 61.426 90.8694C61.426 91.5536 61.3235 92.1647 61.119 92.7024C60.914 93.2411 60.6065 93.7062 60.1968 94.0975C59.7862 94.4876 59.3015 94.78 58.7428 94.9749C58.1849 95.1696 57.5531 95.267 56.848 95.267C56.1871 95.267 55.5905 95.1755 55.0587 94.9922C54.5268 94.8089 54.0595 94.5338 53.6574 94.1667C53.2552 93.7995 52.9489 93.3718 52.7389 92.8843C52.5319 92.4042 52.4183 91.8661 52.398 91.2704ZM50.1175 91.2154H52.4514L52.4521 91.2421C52.4697 91.8411 52.5822 92.3815 52.7894 92.8626C52.9964 93.3429 53.2982 93.7643 53.6945 94.1261C54.0908 94.4879 54.5517 94.7592 55.0765 94.9401C55.6026 95.1213 56.1933 95.2118 56.848 95.2118C57.5472 95.2118 58.1729 95.1155 58.7247 94.923C59.276 94.7308 59.7541 94.4422 60.1588 94.0577C60.5625 93.6722 60.8655 93.2139 61.0675 92.6828C61.2696 92.1515 61.3709 91.547 61.3709 90.8694C61.3709 90.2428 61.2726 89.6789 61.0756 89.1777C60.8789 88.677 60.5835 88.2384 60.1895 87.8618C59.4008 87.1081 58.3441 86.7313 57.0223 86.7313C56.3806 86.7313 55.7989 86.812 55.2779 86.973C54.7575 87.1338 54.2973 87.3751 53.8983 87.6963C53.4984 88.0172 53.1816 88.4009 52.9474 88.8468C52.713 89.2937 52.5611 89.8041 52.492 90.3772L52.4891 90.4015H50.09V86.8709H48.9856V95.0742H50.09V91.2154H50.1175ZM56.9799 87.6081C56.4611 87.6081 55.9989 87.6822 55.5931 87.8307C55.1881 87.9789 54.8391 88.2014 54.5463 88.4982C54.2532 88.7944 54.0331 89.1466 53.8863 89.5549C53.7394 89.9633 53.6658 90.4284 53.6658 90.9499C53.6658 91.4902 53.7357 91.9699 53.8754 92.3881C54.0145 92.8047 54.2234 93.1606 54.5019 93.4553C54.7794 93.7509 55.1136 93.9727 55.5039 94.1206C55.8951 94.2688 56.3433 94.343 56.848 94.343C57.3744 94.343 57.8411 94.2699 58.2481 94.1243C58.6552 93.9789 59.0028 93.7606 59.2912 93.4704C59.5793 93.1794 59.7959 92.8282 59.9403 92.4172C60.0849 92.0056 60.1573 91.5335 60.1573 91.0011C60.1573 90.4519 60.0877 89.9668 59.9488 89.5464C59.8102 89.1266 59.6024 88.771 59.326 88.4801C59.0486 88.1893 58.715 87.9714 58.3247 87.8261C57.934 87.6808 57.4859 87.6081 56.9799 87.6081ZM55.5742 87.7791C55.9861 87.6282 56.4548 87.5529 56.9799 87.5529C57.4921 87.5529 57.9467 87.6269 58.3439 87.7747C58.7421 87.9228 59.0826 88.1454 59.3658 88.4422C59.6481 88.7393 59.8601 89.1017 60.0012 89.5291C60.1419 89.9552 60.2124 90.4459 60.2124 91.0011C60.2124 91.5395 60.1389 92.0176 59.9922 92.4352C59.845 92.8542 59.6242 93.2122 59.3301 93.5092C59.0359 93.8054 58.6814 94.028 58.2666 94.1763C57.8537 94.324 57.3808 94.3981 56.848 94.3981C56.3368 94.3981 55.8821 94.3227 55.4845 94.1721C55.0862 94.0211 54.7452 93.7947 54.4619 93.493C54.1779 93.1925 53.965 92.8298 53.8232 92.4055C53.6816 91.9814 53.6107 91.4959 53.6107 90.9499C53.6107 90.4224 53.6855 89.9511 53.8346 89.5363C53.9842 89.1203 54.2085 88.7612 54.5072 88.4596C54.8058 88.1569 55.1615 87.9301 55.5742 87.7791Z" fill="#080607"/>
<path fill-rule="evenodd" clip-rule="evenodd" d="M39.4358 0.124512C44.7749 0.124512 49.8665 1.18614 54.5104 3.10978C59.3342 5.1078 63.6753 8.03593 67.3094 11.6701C70.9436 15.3043 73.8717 19.6453 75.8698 24.4691C77.7934 29.1131 78.855 34.2045 78.855 39.5436C78.855 44.8827 77.7934 49.9741 75.8698 54.6181C73.8717 59.4419 70.9436 63.7829 67.3094 67.4171C63.6753 71.0513 59.3342 73.9794 54.5104 75.9775C49.8665 77.901 44.7749 78.9627 39.4358 78.9627C34.0968 78.9627 29.0054 77.901 24.3615 75.9775C19.5377 73.9794 15.1967 71.0513 11.5624 67.4171C7.92827 63.7829 5.00017 59.4419 3.00202 54.6181C1.07844 49.9741 0.0168152 44.8827 0.0168152 39.5436C0.0168152 34.2045 1.07844 29.1131 3.00202 24.4691C5.00011 19.6453 7.92827 15.3043 11.5624 11.6701C15.1966 8.03593 19.5376 5.1078 24.3614 3.10978C29.0054 1.18614 34.0968 0.124512 39.4358 0.124512ZM66.2962 12.6834C62.7938 9.181 58.6107 6.35926 53.9627 4.43408C49.4877 2.5805 44.5812 1.55753 39.4358 1.55753C34.2905 1.55753 29.384 2.5805 24.9091 4.43408C20.2611 6.35926 16.0781 9.181 12.5757 12.6834C9.07329 16.1858 6.25157 20.3688 4.32638 25.0168C2.4728 29.4918 1.44983 34.3982 1.44983 39.5436C1.44983 44.6891 2.4728 49.5955 4.32638 54.0705C6.25157 58.7185 9.07329 62.9015 12.5757 66.4039C16.0781 69.9062 20.2612 72.728 24.9091 74.6532C29.3841 76.5067 34.2905 77.5298 39.4358 77.5298C44.5812 77.5298 49.4877 76.5067 53.9627 74.6532C58.6107 72.728 62.7938 69.9062 66.2962 66.4039C69.7985 62.9015 72.6203 58.7185 74.5455 54.0705C76.399 49.5955 77.422 44.6891 77.422 39.5436C77.422 34.3982 76.399 29.4918 74.5455 25.0168C72.6203 20.3688 69.7986 16.1858 66.2962 12.6834Z" fill="#080607"/>
<path fill-rule="evenodd" clip-rule="evenodd" d="M19.8389 22.4187L19.8366 22.4106C19.688 21.8839 19.6015 21.3991 19.5701 20.9569C19.5372 20.4925 19.5648 20.0744 19.6449 19.7037C19.7398 19.2645 19.9056 18.8922 20.1198 18.5889C20.3514 18.2608 20.64 18.0127 20.9574 17.8463C21.1326 17.7544 21.317 17.6871 21.5054 17.6448C21.6428 17.6141 21.7824 17.5965 21.9223 17.5923V17.5922H21.9275C21.9799 17.5907 22.0322 17.5912 22.0846 17.5935C22.2793 17.6022 22.4736 17.6369 22.6622 17.698C22.8467 17.7578 23.0262 17.843 23.1953 17.9535C23.5122 18.1606 23.7945 18.4578 24.0116 18.8467C24.2104 19.2026 24.3547 19.6356 24.4214 20.1469L24.423 20.1594L24.4235 20.1628L24.4246 20.172L24.4255 20.1789L24.4261 20.1846L24.4275 20.1951L24.4276 20.1973L24.4291 20.21L24.4293 20.2114L24.4305 20.2228L24.4311 20.2276L24.4319 20.2356L24.4327 20.244L24.4332 20.2483L24.4344 20.2605L24.4345 20.2612L24.4357 20.2742L24.436 20.2769L24.4369 20.2871L24.4375 20.2935L24.4381 20.3002L24.4389 20.3102L24.4392 20.3132L24.4403 20.3263L24.4403 20.3269L24.4413 20.3394L24.4416 20.3437L24.4423 20.3526L24.4429 20.3606L24.4432 20.3658L24.444 20.3774L24.4442 20.379L24.445 20.3924L24.4452 20.3944L24.4459 20.4058L24.4462 20.4115L24.4466 20.4191L24.4472 20.4286L24.4474 20.4326L24.4481 20.4458V20.446L24.4488 20.4595L24.449 20.4631L24.4494 20.4731L24.4497 20.4804L24.45 20.4867L24.4504 20.4979L24.4505 20.5003L24.451 20.514L24.4511 20.5153L24.4515 20.5278L24.4516 20.5328L24.4519 20.5415L24.4521 20.5505L24.4522 20.5553L24.4526 20.568V20.5692L24.4529 20.583L24.4529 20.5859L24.4532 20.597L24.4532 20.6036L24.4533 20.6109L24.4535 20.6215L24.4536 20.625L24.4536 20.639V20.6394L24.4537 20.6531L24.4537 20.6575V20.6673V20.6755V20.6814V20.6937L24.4537 20.6956L24.4536 20.7099V20.712L24.4536 20.7241L24.4534 20.7302L24.4533 20.7386L24.4532 20.7486V20.7529L24.4529 20.767V20.7673L24.4526 20.7818L24.4524 20.7854L24.4522 20.7962L24.4521 20.804L24.4519 20.8108L24.4515 20.8226L24.4514 20.8254L24.451 20.84L24.4509 20.8412L24.4505 20.8547L24.4503 20.8599L24.4499 20.8693L24.4496 20.8788L24.4494 20.8841L24.4487 20.8976V20.8988L24.448 20.9136L24.4479 20.9165L24.4473 20.9285L24.447 20.9356L24.4465 20.9434L24.446 20.9546L24.4457 20.9583L24.4449 20.9732L24.4449 20.9737L24.444 20.9882L24.4437 20.9929L24.4431 21.0033L24.4425 21.0121L24.4421 21.0184L24.4412 21.0315L24.4411 21.0335L24.4401 21.0483L24.4399 21.0509L24.439 21.0633L24.4385 21.0702L24.4378 21.0783L24.437 21.0897L24.4368 21.0934L24.4355 21.1084L24.4354 21.1093L24.4343 21.1235L24.4338 21.1289L24.433 21.1386L24.4321 21.1487L24.4317 21.1538L24.4304 21.1684L24.4303 21.1689L24.4289 21.1842L24.4285 21.1882L24.4275 21.1994L24.4267 21.208L24.426 21.2148L24.4246 21.228L24.4245 21.2301L24.4228 21.2455L24.4226 21.248L24.4212 21.261L24.4205 21.268L24.4196 21.2764L24.4183 21.2881L24.4178 21.2919L24.4161 21.3075L24.416 21.3083L24.4144 21.3229L24.4138 21.328L24.4125 21.3386L24.4114 21.3478L24.4106 21.3543L24.4091 21.3677L24.4087 21.37L24.4068 21.3856L24.4066 21.3875L24.4048 21.4013L24.404 21.4075L24.4028 21.4172L24.4015 21.4275L24.4007 21.4331L24.3988 21.4476L24.3986 21.4489L24.3965 21.4648L24.3961 21.4677L24.3942 21.4807L24.3932 21.4879L24.392 21.4967L24.3904 21.5082L24.3898 21.5127L24.3875 21.5286L24.3874 21.5287L24.385 21.5447L24.3801 21.577L24.3782 21.5898L24.3777 21.5932L24.3752 21.6094L24.375 21.6103C24.3692 21.6479 24.3629 21.6857 24.3563 21.7237L24.3543 21.7347L24.3534 21.7403L24.3415 21.8065L24.3393 21.8187L24.3384 21.8232L24.3256 21.8902L24.323 21.9036L24.3223 21.907L24.319 21.9238L24.3189 21.9249L24.3157 21.9407L24.3146 21.9464L24.3122 21.9577L24.3103 21.9677L24.3088 21.9745L24.3058 21.9893L24.3053 21.9916L24.3017 22.0086L24.3013 22.0109L24.2981 22.0256L24.2946 22.0427L24.2921 22.0541L24.2909 22.0598L24.2875 22.0759L24.2843 22.0906C24.2424 22.2818 24.1926 22.4789 24.1347 22.6818C24.0493 22.9813 23.9463 23.2926 23.8253 23.6141L23.8255 23.6142L23.8164 23.638L23.8158 23.6394V23.6395L23.8097 23.6556L23.8066 23.6637L23.8036 23.6717L23.7974 23.688L23.7973 23.688L23.7912 23.7041L23.788 23.7123L23.7848 23.7204L23.7786 23.7365L23.7786 23.7367L23.7723 23.7529L23.7692 23.7609L23.766 23.7692L23.7597 23.7853L23.7595 23.7855L23.7532 23.8018L23.7501 23.8097L23.7468 23.8182L23.7404 23.8342L23.7403 23.8345L23.7337 23.8509L23.7307 23.8587L23.7272 23.8673L23.7209 23.8832L23.7207 23.8837L23.7141 23.9002L23.711 23.9078L23.7075 23.9166L23.7011 23.9324L23.7008 23.9331L23.6942 23.9496L23.691 23.9571L23.6874 23.966L23.6811 23.9818L23.6807 23.9826L23.6739 23.9991L23.6709 24.0065L23.6671 24.0156L23.6607 24.0313L23.6602 24.0322L23.6535 24.0488L23.6504 24.056L23.6464 24.0654L23.6401 24.0809L23.6396 24.082L23.6326 24.0986L23.6296 24.1058L23.6256 24.1153L23.6116 24.1486L23.6086 24.1555L23.6045 24.1653L23.598 24.1805L23.5974 24.1821L23.5902 24.1988L23.5874 24.2056L23.583 24.2155L23.5686 24.2491L23.5667 24.2536L23.5614 24.2658L23.5562 24.2777L23.554 24.2826L23.5467 24.2994L23.5457 24.3019L23.5393 24.3163L23.5352 24.3259L23.5319 24.3332L23.5245 24.35V24.3501L23.5031 24.3986L23.5021 24.4007L23.4945 24.4177L23.4923 24.4228L23.487 24.4347L23.4815 24.4471L23.4794 24.4516L23.4717 24.4686L23.4704 24.4715L23.464 24.4856L23.4486 24.5196L23.4484 24.5202L23.426 24.5691L23.4251 24.5708L23.4173 24.5879L23.4148 24.5936L23.4095 24.605L23.4015 24.6221L23.3936 24.6392L23.3921 24.6426L23.3856 24.6564L23.3806 24.6672L23.3703 24.6894L23.3695 24.6907L23.3691 24.6918L23.3614 24.7079L23.3575 24.7164L23.3536 24.7246L23.3459 24.741L23.3457 24.7414L23.3378 24.7581L23.3341 24.7658L23.3299 24.7748L23.3139 24.8082L23.3106 24.8153L23.3058 24.825L23.2986 24.84L23.2978 24.8418L23.2897 24.8586L23.2867 24.8648L23.2815 24.8754L23.2733 24.8923L23.2652 24.9091L23.2625 24.9145L23.257 24.9259L23.2504 24.9394L23.2487 24.9428L23.2404 24.9597L23.2382 24.9644L23.2321 24.9765L23.2259 24.9893L23.2238 24.9935L23.2154 25.0105L23.2136 25.0143L23.207 25.0273L23.2011 25.0392L23.1986 25.0443L23.1902 25.0612L23.1886 25.0643L23.1817 25.0782L23.176 25.0894L23.1732 25.0952L23.1647 25.1122L23.1635 25.1144L23.1561 25.1291L23.1508 25.1395L23.1475 25.1461L23.1388 25.1632L23.1381 25.1646L23.1302 25.1802L23.1253 25.1899L23.1215 25.1973L23.1128 25.2143L23.1125 25.215L23.104 25.2314L23.0994 25.2403L23.0953 25.2484L23.0865 25.2655L23.0865 25.2657L23.0776 25.2827L23.0734 25.2908L23.0687 25.2999L23.0602 25.316L23.0598 25.317L23.0509 25.3342L23.0471 25.3414L23.0419 25.3513L23.0339 25.3667L23.033 25.3685L23.024 25.3857L23.0206 25.3922L23.0149 25.4029L23.0072 25.4175L23.0058 25.4201L22.9968 25.4373L22.9937 25.4429L22.9876 25.4545L22.9802 25.4684L22.9785 25.4718L22.9692 25.489L22.9666 25.4939L22.96 25.5064L22.953 25.5194L22.9508 25.5235L22.9415 25.5409L22.9393 25.5449L22.9322 25.5582L22.9255 25.5705L22.9135 25.5928L22.9117 25.5961L22.904 25.6102L22.8978 25.6216L22.8946 25.6275L22.8851 25.6448L22.8838 25.6473L22.8756 25.6623L22.8697 25.6729L22.8661 25.6796L22.8565 25.697L22.8556 25.6986L22.847 25.7144L22.8415 25.7243L22.8373 25.7318L22.8277 25.7492L22.8272 25.75L22.818 25.7667L22.8129 25.7757L22.8083 25.7841L22.7986 25.8016L22.7772 25.8399V28.5915V61.1032H22.7497L22.7491 61.2687C22.7491 61.3573 22.7314 61.442 22.6994 61.5194C22.6677 61.5961 22.6217 61.6655 22.5652 61.7241V61.725L22.5572 61.7329C22.4971 61.793 22.425 61.8415 22.3446 61.8746C22.2673 61.9065 22.1825 61.9242 22.0937 61.9242C22.0049 61.9242 21.92 61.9065 21.8427 61.8747C21.7624 61.8415 21.6902 61.793 21.6302 61.7329L21.6294 61.7322C21.5695 61.6723 21.5209 61.6001 21.4877 61.5197C21.4559 61.4424 21.4382 61.3575 21.4382 61.2687V61.1032H21.4101V25.8654L21.3862 25.8254C21.1806 25.4825 21.0019 25.1698 20.8413 24.8672C20.681 24.5648 20.5388 24.2724 20.406 23.9701L20.3954 23.9457L20.4196 23.9342C20.62 23.8401 20.8207 23.7584 21.0208 23.69C21.2185 23.6224 21.4165 23.5674 21.614 23.5257L21.6368 23.5209L21.6452 23.5427C21.6912 23.662 21.7309 23.7619 21.7721 23.8625C21.8136 23.9642 21.8576 24.0688 21.9116 24.1962L21.9223 24.2216V24.2216L22.0604 24.5474L22.2149 24.1988L22.2179 24.192L22.2209 24.1853L22.2239 24.1784L22.2269 24.1717L22.2298 24.1649L22.2305 24.1633L22.2328 24.1582L22.2358 24.1515L22.2387 24.1447L22.2416 24.138L22.2446 24.1313L22.246 24.128L22.2475 24.1246L22.2505 24.1178L22.2535 24.1111L22.2564 24.1044L22.2593 24.0977L22.2614 24.0929L22.2622 24.0911L22.2651 24.0843L22.268 24.0777L22.271 24.071L22.2739 24.0643L22.2766 24.0579L22.2768 24.0577L22.2797 24.0511L22.2826 24.0443L22.2854 24.0377L22.2883 24.031L22.2912 24.0244L22.2918 24.023L22.2941 24.0178L22.2969 24.0111L22.2998 24.0044L22.3027 23.9978L22.3055 23.9912L22.3068 23.9882L22.3083 23.9846L22.3112 23.978L22.314 23.9714L22.3169 23.9648L22.3197 23.9581L22.3217 23.9535L22.3225 23.9516L22.3253 23.945L22.3281 23.9384L22.331 23.9318L22.3337 23.9253L22.3364 23.9189L22.3366 23.9187L22.3393 23.9122L22.3421 23.9055L22.3448 23.899L22.3477 23.8925L22.3505 23.8859L22.3511 23.8845L22.3532 23.8794L22.3561 23.8728L22.3588 23.8663L22.3615 23.8597L22.3642 23.8533L22.3656 23.8502L22.367 23.8468L22.3698 23.8402L22.3725 23.8337L22.3752 23.8272L22.378 23.8208L22.38 23.816L22.3807 23.8142L22.3833 23.8077L22.386 23.8013L22.3888 23.7948L22.3915 23.7884L22.3941 23.7819V23.7819L22.3968 23.7754L22.3995 23.7689L22.4023 23.7624L22.4049 23.7559L22.4076 23.7494L22.4083 23.7479L22.4103 23.7429L22.413 23.7365L22.4157 23.73L22.4184 23.7235L22.421 23.7171L22.4223 23.7141L22.4237 23.7107L22.4263 23.7042L22.429 23.6977L22.4317 23.6913L22.4343 23.6848L22.4362 23.6802L22.4369 23.6784L22.4396 23.672L22.4422 23.6656L22.4448 23.6592L22.4474 23.6528L22.45 23.6466L22.4501 23.6463L22.4527 23.6399L22.4553 23.6335L22.4579 23.6272L22.4605 23.6207L22.463 23.6144L22.4635 23.6131L22.4656 23.608L22.4682 23.6016L22.4707 23.5953L22.4733 23.5888L22.4758 23.5826L22.477 23.5798L22.4785 23.5762L22.4811 23.5698L22.4836 23.5634L22.4861 23.5572L22.4886 23.5508L22.4904 23.5465L22.4912 23.5445L22.4937 23.5382L22.4963 23.5318L22.4988 23.5256L22.5012 23.5192L22.5037 23.5133L22.5038 23.513L22.5063 23.5066L22.5088 23.5003L22.5113 23.494L22.5138 23.4878L22.5188 23.4753L22.5212 23.4689L22.5236 23.4627L22.5261 23.4564L22.5286 23.4502L22.5297 23.4473L22.5311 23.444L22.5335 23.4377L22.5359 23.4314L22.5384 23.4252L22.5409 23.4189L22.5427 23.4145L22.5433 23.4128L22.5457 23.4066L22.5482 23.4003L22.5505 23.3941L22.5529 23.388L22.5553 23.3817L22.5578 23.3755L22.5602 23.3694L22.5672 23.3512C22.7311 22.928 22.8631 22.5345 22.9617 22.1692C22.9971 22.0394 23.0284 21.9132 23.0557 21.7909L23.0561 21.7893L23.057 21.7849L23.0593 21.7748L23.0616 21.7646L23.0619 21.763L23.0637 21.7544L23.0659 21.7442L23.0676 21.7368L23.0682 21.7341L23.0703 21.7239L23.0725 21.7139L23.0731 21.7108L23.0746 21.7036L23.0767 21.6936L23.0785 21.6849L23.0788 21.6835L23.0809 21.6736L23.0829 21.6634L23.0838 21.6591L23.085 21.6535L23.089 21.6335H23.0891L23.091 21.6235L23.0929 21.6136L23.0941 21.6078L23.0949 21.6036L23.0968 21.5937L23.0987 21.5837L23.1005 21.574L23.1024 21.564L23.1038 21.5571L23.1043 21.5542L23.1061 21.5444L23.108 21.5346L23.1085 21.5319L23.113 21.5067L23.1132 21.5052L23.115 21.4954L23.1167 21.4858C23.1213 21.4599 23.1256 21.4341 23.1298 21.4084L23.1299 21.4074L23.1313 21.399L23.1344 21.3798L23.1358 21.3703L23.143 21.3229L23.1444 21.3135C23.1516 21.2633 23.158 21.2139 23.1638 21.1649C23.1718 21.0954 23.1783 21.0274 23.1831 20.9611L23.1832 20.9598L23.1866 20.9078L23.1871 20.8992L23.1881 20.8821L23.1885 20.8736L23.189 20.865L23.1893 20.8565L23.1908 20.8227L23.1911 20.8142L23.1914 20.8073V20.8058L23.1916 20.7975L23.192 20.7857L23.1921 20.7807L23.1923 20.7725L23.1927 20.7558L23.1928 20.7476L23.193 20.743L23.193 20.7394L23.1931 20.7311L23.1932 20.7229L23.1933 20.7219L23.1934 20.7065V20.7008V20.6983V20.6902V20.682V20.6798V20.674V20.6658V20.659V20.6577L23.1933 20.6497L23.1932 20.6417L23.1932 20.6383L23.1931 20.6337L23.193 20.6257L23.1928 20.6177L23.1927 20.6166C23.1836 20.1496 23.0806 19.7696 22.8837 19.4768C22.6876 19.185 22.3972 18.9788 22.0128 18.8587L21.9738 18.8466L21.9333 18.8541L21.9223 18.8561C21.5629 18.9257 21.2953 19.0937 21.1198 19.3595C20.9414 19.6299 20.8568 20.0026 20.866 20.4773C20.8699 20.6835 20.8926 20.9107 20.9336 21.1583C20.9747 21.4059 21.0346 21.6745 21.1129 21.9636L21.1202 21.9902L21.0933 21.9973C20.8899 22.0507 20.6863 22.1141 20.4832 22.1873C20.281 22.2603 20.0786 22.3433 19.8768 22.4361L19.8477 22.4495L19.8389 22.4187Z" fill="#080607"/>
<path fill-rule="evenodd" clip-rule="evenodd" d="M15.4217 25.088C16.4783 23.7511 17.696 22.6794 18.9605 21.9734C19.5728 21.6312 20.1961 21.3752 20.8167 21.2169C21.421 21.0626 22.0232 21.0009 22.6106 21.0421C23.2168 21.0846 23.8084 21.2373 24.3716 21.5119C24.9103 21.7745 25.4234 22.1486 25.8988 22.6444C28.4279 25.2815 28.9068 31.9861 29.369 38.4569C29.7046 43.1562 30.0316 47.7321 31.1273 50.5288C32.0004 52.757 33.3636 53.8526 35.6137 52.971C36.2139 52.7358 36.8251 52.3487 37.4353 51.8412C38.0863 51.3002 38.7366 50.6218 39.3725 49.8448C40.0496 49.0175 40.711 48.0774 41.3396 47.0716C42.005 46.0068 42.6337 44.8681 43.2051 43.7115L43.2226 43.6762L43.2109 43.6377C42.8804 42.5477 42.6196 41.4056 42.4359 40.2679C42.2503 39.1185 42.143 37.9733 42.1212 36.8907C42.1045 36.059 42.1381 35.2649 42.2251 34.5354C42.3092 33.8297 42.4436 33.1833 42.6309 32.6205C42.8225 32.0448 43.0692 31.558 43.3739 31.1869C43.6642 30.8334 44.0072 30.5846 44.4051 30.4639C44.4899 30.4383 44.5778 30.4182 44.6684 30.4041C44.7576 30.3903 44.8495 30.3823 44.9438 30.3804C45.1785 30.3757 45.396 30.3931 45.5964 30.4311C45.8017 30.4702 45.9895 30.5309 46.1603 30.6119C46.3981 30.7246 46.6042 30.8774 46.78 31.0661C46.9608 31.26 47.1098 31.4922 47.2287 31.7577C47.3467 32.0212 47.4356 32.3178 47.4973 32.6432C47.5604 32.9769 47.595 33.3412 47.6028 33.7316C47.628 34.9847 47.3793 36.5006 46.9225 38.1368C46.4416 39.8597 45.7301 41.7163 44.8654 43.5406L44.8485 43.5762L44.8603 43.6135C45.2202 44.7564 45.648 45.8221 46.134 46.7181C46.5791 47.5386 47.0727 48.217 47.6075 48.6817C47.7833 48.8344 47.9638 48.9646 48.149 49.0696C48.3286 49.1715 48.5126 49.2499 48.7003 49.3021C48.8953 49.3564 49.0942 49.3827 49.2965 49.3786C49.4931 49.3746 49.6935 49.3417 49.897 49.2775C51.2896 48.8389 53.0531 46.3164 54.0866 44.838C54.2029 44.6717 54.3104 44.518 54.4027 44.3879L54.4031 44.3873C55.2932 43.1342 55.9737 42.1759 56.6574 41.7263C58.4628 40.5389 61.5946 44.6967 64.058 48.442C64.6734 49.3776 65.2444 50.283 65.7429 51.0734C66.308 51.9694 66.7803 52.7183 67.1131 53.1884C67.1714 53.2631 67.2122 53.3467 67.2359 53.4335C67.2607 53.5234 67.267 53.6168 67.2557 53.7076C67.2444 53.7983 67.2152 53.8871 67.1692 53.9679C67.1248 54.0459 67.0646 54.1167 66.9896 54.175L66.9825 54.1803C66.9079 54.2369 66.8254 54.2763 66.7402 54.299C66.6516 54.3227 66.5597 54.3286 66.4703 54.3175C66.3799 54.3063 66.2916 54.2773 66.2109 54.2317C66.1334 54.1877 66.0629 54.1279 66.0045 54.0534L66.0034 54.0519C65.1677 52.8163 64.428 51.6904 63.7695 50.6716C63.1084 49.6489 62.535 48.7436 62.0272 47.9419C61.3169 46.8201 60.6539 45.9253 60.0769 45.2283C59.2518 44.2317 58.6027 43.6401 58.2408 43.3671C57.153 42.7152 56.5705 43.5447 54.9031 45.9192L54.1258 47.0237C53.4938 47.9165 52.8785 48.629 52.2822 49.1803C51.6539 49.7612 51.0461 50.1634 50.462 50.4092C50.1465 50.542 49.8378 50.629 49.5369 50.6738C49.2263 50.7199 48.9232 50.7213 48.6284 50.6816C48.3421 50.6433 48.0628 50.5662 47.7917 50.4541C47.5124 50.3389 47.2412 50.1863 46.9789 50.0006C46.3921 49.5854 45.8491 49.0051 45.3553 48.3035C44.8289 47.5555 44.3579 46.669 43.9488 45.6971L43.8679 45.5048L43.7674 45.6875C43.1721 46.7702 42.531 47.8162 41.8618 48.7872C41.2158 49.7244 40.5437 50.5917 39.8613 51.3548C39.215 52.0777 38.5599 52.7069 37.9103 53.2126C37.2917 53.6941 36.6773 54.0646 36.0789 54.2986C32.9093 55.5385 31.0723 54.062 29.9452 51.1808C28.6761 47.9368 28.3099 42.9087 27.951 37.9797C27.5124 31.9562 27.0845 26.0807 25.0352 23.8083C24.644 23.3745 24.2224 23.0511 23.7798 22.8277C23.3162 22.5937 22.829 22.4691 22.3294 22.4418C21.8526 22.4159 21.3649 22.4788 20.8758 22.6198C20.3687 22.7661 19.8593 22.9966 19.3586 23.2994C18.309 23.934 17.2943 24.8878 16.411 26.0481C15.5377 27.1953 14.7927 28.5445 14.2686 29.9868L14.2657 29.9957C14.241 30.0875 14.1991 30.1703 14.1447 30.2413C14.0881 30.3151 14.0176 30.3764 13.9383 30.4221C13.8591 30.4677 13.7705 30.4981 13.6781 30.5101C13.5891 30.5217 13.4962 30.5164 13.4042 30.4918C13.3123 30.467 13.2292 30.4251 13.1581 30.3706C13.0843 30.3141 13.023 30.2435 12.9773 30.1642C12.932 30.0856 12.9017 29.9978 12.8896 29.906C12.8777 29.8177 12.8827 29.7255 12.9067 29.634L12.9074 29.6315C13.5252 27.9284 14.398 26.3834 15.4217 25.088ZM45.8007 36.9437C46.118 35.7123 46.2894 34.6191 46.2778 33.7654C46.2746 33.5205 46.2562 33.2943 46.2219 33.0892C46.1884 32.889 46.1399 32.7092 46.0754 32.5521C46.0064 32.3839 45.9192 32.2409 45.813 32.1257C45.7099 32.0136 45.5884 31.9275 45.4483 31.8698C45.379 31.8413 45.305 31.8199 45.2267 31.806C45.1488 31.7922 45.0667 31.7857 44.9806 31.7868C44.951 31.7872 44.9217 31.789 44.893 31.7922C44.8645 31.7953 44.8364 31.7999 44.8093 31.8057C44.5853 31.8538 44.3934 31.9899 44.2324 32.2007C44.062 32.4237 43.9259 32.7304 43.8225 33.1052C43.7271 33.4505 43.6584 33.8562 43.6149 34.3092C43.5701 34.7761 43.5522 35.2933 43.5596 35.8464C43.5702 36.6285 43.6317 37.4842 43.7395 38.3729C43.8469 39.2569 44.0003 40.1732 44.1954 41.0816L44.2637 41.3999L44.3875 41.0991C44.9876 39.6406 45.4724 38.2181 45.8007 36.9437Z" fill="#080607"/>
</svg>
