<svg width="67" height="67" viewBox="0 0 67 67" fill="none" xmlns="http://www.w3.org/2000/svg">
<path fill-rule="evenodd" clip-rule="evenodd" d="M33.4457 0.105804C37.9738 0.105804 42.2919 1.00805 46.2304 2.6429C50.3215 4.34097 54.0032 6.82951 57.0853 9.91811C60.1675 13.0067 62.6508 16.696 64.3454 20.7956C65.9768 24.7425 66.8772 29.0695 66.8772 33.607C66.8772 38.1446 65.9768 42.4717 64.3454 46.4184C62.6508 50.5181 60.1675 54.2074 57.0853 57.2959C54.0032 60.3846 50.3215 62.8731 46.2304 64.5712C42.2919 66.206 37.9738 67.1083 33.4457 67.1083C28.9177 67.1083 24.5996 66.206 20.6611 64.5712C16.5701 62.8731 12.8885 60.3846 9.80625 57.2959C6.72412 54.2074 4.24079 50.5181 2.54616 46.4184C0.914773 42.4717 0.0144043 38.1446 0.0144043 33.607C0.0144043 29.0695 0.914773 24.7425 2.54616 20.7956C4.24074 16.696 6.72412 13.0067 9.80625 9.91811C12.8884 6.82951 16.57 4.34097 20.6611 2.6429C24.5996 1.00805 28.9177 0.105804 33.4457 0.105804ZM56.226 10.7792C53.2556 7.80268 49.7079 5.40455 45.766 3.76839C41.9708 2.19308 37.8096 1.32368 33.4457 1.32368C29.0819 1.32368 24.9208 2.19308 21.1255 3.76839C17.1836 5.40455 13.636 7.80268 10.6656 10.7792C7.69521 13.7559 5.30211 17.3109 3.66935 21.2611C2.09733 25.0643 1.22974 29.2341 1.22974 33.607C1.22974 37.98 2.09733 42.1498 3.66935 45.953C5.30211 49.9032 7.69521 53.4583 10.6656 56.4349C13.636 59.4114 17.1837 61.8096 21.1256 63.4457C24.9208 65.021 29.0819 65.8905 33.4457 65.8905C37.8096 65.8905 41.9708 65.021 45.766 63.4457C49.7079 61.8096 53.2556 59.4114 56.226 56.4349C59.1964 53.4583 61.5895 49.9032 63.2222 45.953C64.7943 42.1498 65.6618 37.98 65.6618 33.607C65.6618 29.2341 64.7943 25.0643 63.2222 21.2611C61.5895 17.3109 59.1964 13.7559 56.226 10.7792Z" fill="#080607"/>
<path fill-rule="evenodd" clip-rule="evenodd" d="M16.8254 19.053L16.8234 19.0462C16.6974 18.5985 16.6241 18.1865 16.5975 17.8107C16.5695 17.416 16.593 17.0607 16.6609 16.7456C16.7414 16.3724 16.882 16.056 17.0637 15.7982C17.2601 15.5194 17.5048 15.3085 17.774 15.1671C17.9226 15.089 18.079 15.0318 18.2388 14.9959C18.3553 14.9697 18.4737 14.9548 18.5924 14.9512V14.9511H18.5968C18.6412 14.9499 18.6856 14.9503 18.73 14.9522C18.8952 14.9596 19.0599 14.9892 19.2199 15.0411C19.3764 15.0919 19.5286 15.1643 19.672 15.2582C19.9408 15.4342 20.1802 15.6868 20.3643 16.0173C20.5329 16.3197 20.6553 16.6877 20.7119 17.1223L20.7132 17.133L20.7136 17.1359L20.7146 17.1436L20.7153 17.1495L20.7159 17.1543L20.717 17.1633L20.7171 17.1651L20.7184 17.1759L20.7185 17.1771L20.7195 17.1868L20.72 17.1909L20.7208 17.1977L20.7215 17.2049L20.7218 17.2085L20.7229 17.2188L20.7229 17.2194L20.724 17.2305L20.7243 17.2328L20.725 17.2414L20.7255 17.2469L20.726 17.2526L20.7267 17.2611L20.727 17.2636L20.7278 17.2748L20.7279 17.2753L20.7287 17.2859L20.729 17.2896L20.7296 17.2971L20.7301 17.3039L20.7304 17.3084L20.731 17.3182L20.7312 17.3196L20.7319 17.3309L20.732 17.3327L20.7326 17.3423L20.7329 17.3472L20.7332 17.3537L20.7337 17.3617L20.7339 17.3651L20.7345 17.3763V17.3765L20.7351 17.388L20.7352 17.391L20.7356 17.3995L20.7359 17.4057L20.7361 17.4111L20.7365 17.4206L20.7365 17.4227L20.7369 17.4343L20.737 17.4354L20.7374 17.446L20.7375 17.4503L20.7377 17.4577L20.7379 17.4653L20.738 17.4694L20.7383 17.4802V17.4812L20.7385 17.4929L20.7386 17.4954L20.7388 17.5048L20.7388 17.5105L20.7389 17.5167L20.7391 17.5257L20.7391 17.5286L20.7392 17.5405V17.5409L20.7392 17.5525L20.7393 17.5563V17.5646V17.5716V17.5766V17.587L20.7392 17.5887L20.7392 17.6008V17.6025L20.7391 17.6129L20.739 17.618L20.7389 17.6251L20.7388 17.6337V17.6373L20.7385 17.6493V17.6496L20.7383 17.6619L20.7382 17.6649L20.738 17.6742L20.7379 17.6808L20.7377 17.6865L20.7374 17.6966L20.7373 17.6989L20.7369 17.7114L20.7369 17.7124L20.7365 17.7238L20.7363 17.7283L20.736 17.7363L20.7357 17.7443L20.7356 17.7488L20.735 17.7603V17.7613L20.7344 17.7739L20.7343 17.7764L20.7338 17.7866L20.7335 17.7926L20.7332 17.7992L20.7327 17.8088L20.7325 17.8119L20.7318 17.8246L20.7318 17.825L20.731 17.8373L20.7308 17.8413L20.7302 17.8501L20.7298 17.8576L20.7294 17.863L20.7286 17.8741L20.7286 17.8758L20.7277 17.8884L20.7275 17.8906L20.7268 17.9011L20.7263 17.907L20.7258 17.9139L20.7251 17.9236L20.7249 17.9267L20.7238 17.9395L20.7238 17.9403L20.7228 17.9523L20.7223 17.9569L20.7217 17.9652L20.721 17.9737L20.7205 17.978L20.7195 17.9904L20.7194 17.9909L20.7182 18.0039L20.7179 18.0072L20.717 18.0168L20.7163 18.0241L20.7157 18.0299L20.7146 18.0411L20.7144 18.0429L20.7131 18.056L20.7129 18.0581L20.7117 18.0691L20.7111 18.0751L20.7103 18.0823L20.7092 18.0922L20.7088 18.0954L20.7074 18.1086L20.7073 18.1094L20.7059 18.1218L20.7054 18.1261L20.7043 18.1351L20.7034 18.1429L20.7027 18.1484L20.7014 18.1598L20.7011 18.1618L20.6995 18.1751L20.6993 18.1766L20.6978 18.1884L20.6971 18.1937L20.6961 18.2019L20.6949 18.2107L20.6943 18.2154L20.6926 18.2277L20.6925 18.2288L20.6907 18.2424L20.6903 18.2449L20.6888 18.2559L20.688 18.262L20.6869 18.2695L20.6855 18.2793L20.685 18.283L20.6831 18.2966L20.683 18.2967L20.681 18.3103L20.6769 18.3377L20.6752 18.3486L20.6748 18.3515L20.6726 18.3652L20.6725 18.366C20.6675 18.3979 20.6623 18.4301 20.6566 18.4624L20.655 18.4717L20.6542 18.4765L20.6441 18.5328L20.6422 18.5432L20.6414 18.547L20.6306 18.6039L20.6284 18.6153L20.6278 18.6182L20.625 18.6324L20.6249 18.6334L20.6222 18.6468L20.6213 18.6516L20.6193 18.6612L20.6176 18.6698L20.6163 18.6756L20.6138 18.6881L20.6134 18.6901L20.6104 18.7045L20.6099 18.7065L20.6073 18.719L20.6043 18.7335L20.6022 18.7432L20.6011 18.7481L20.5983 18.7617L20.5955 18.7742C20.56 18.9367 20.5178 19.1043 20.4687 19.2766C20.3962 19.5312 20.3089 19.7957 20.2063 20.069L20.2064 20.0691L20.1988 20.0893L20.1982 20.0905V20.0906L20.1931 20.1042L20.1904 20.1112L20.1878 20.1179L20.1826 20.1318L20.1825 20.1318L20.1774 20.1455L20.1747 20.1524L20.172 20.1593L20.1667 20.173L20.1667 20.1732L20.1613 20.187L20.1587 20.1938L20.156 20.2008L20.1506 20.2145L20.1505 20.2147L20.1451 20.2285L20.1425 20.2352L20.1397 20.2425L20.1343 20.2561L20.1342 20.2563L20.1286 20.2703L20.1261 20.2769L20.1231 20.2842L20.1177 20.2977L20.1176 20.2982L20.112 20.3121L20.1093 20.3186L20.1064 20.3261L20.1009 20.3395L20.1007 20.3401L20.0951 20.3541L20.0924 20.3605L20.0894 20.3681L20.084 20.3815L20.0837 20.3821L20.0779 20.3962L20.0753 20.4025L20.0721 20.4102L20.0667 20.4235L20.0663 20.4243L20.0606 20.4384L20.058 20.4446L20.0546 20.4525L20.0492 20.4657L20.0488 20.4666L20.0429 20.4808L20.0403 20.4869L20.0369 20.4949L20.025 20.5233L20.0225 20.5292L20.019 20.5375L20.0136 20.5504L20.013 20.5517L20.0069 20.5659L20.0045 20.5717L20.0008 20.5801L19.9886 20.6086L19.9869 20.6125L19.9824 20.6229L19.9781 20.633L19.9762 20.6372L19.97 20.6514L19.9692 20.6535L19.9638 20.6658L19.9602 20.6739L19.9575 20.6801L19.9512 20.6944V20.6945L19.933 20.7357L19.9322 20.7375L19.9258 20.7519L19.9238 20.7563L19.9194 20.7664L19.9147 20.777L19.9129 20.7807L19.9064 20.7952L19.9053 20.7976L19.8999 20.8096L19.8868 20.8386L19.8866 20.8391L19.8676 20.8806L19.8669 20.8821L19.8603 20.8966L19.8581 20.9014L19.8536 20.9111L19.8469 20.9257L19.8402 20.9402L19.8389 20.9431L19.8334 20.9548L19.8291 20.964L19.8204 20.9828L19.8198 20.984L19.8194 20.9849L19.8129 20.9986L19.8096 21.0058L19.8062 21.0128L19.7997 21.0267L19.7996 21.027L19.7928 21.0412L19.7897 21.0478L19.7861 21.0555L19.7726 21.0838L19.7698 21.0899L19.7657 21.0981L19.7596 21.1108L19.7589 21.1124L19.752 21.1266L19.7495 21.1319L19.7451 21.141L19.7382 21.1553L19.7313 21.1696L19.729 21.1742L19.7243 21.1839L19.7188 21.1954L19.7173 21.1982L19.7102 21.2126L19.7084 21.2165L19.7032 21.2269L19.6979 21.2377L19.6961 21.2413L19.6891 21.2557L19.6875 21.2589L19.6819 21.2701L19.6769 21.2802L19.6748 21.2845L19.6676 21.2988L19.6663 21.3014L19.6605 21.3133L19.6557 21.3228L19.6533 21.3277L19.646 21.3422L19.645 21.3441L19.6388 21.3565L19.6343 21.3654L19.6314 21.371L19.6241 21.3855L19.6235 21.3867L19.6168 21.4L19.6126 21.4082L19.6094 21.4145L19.6021 21.429L19.6018 21.4296L19.5946 21.4435L19.5907 21.451L19.5872 21.458L19.5797 21.4725L19.5797 21.4726L19.5722 21.4871L19.5686 21.494L19.5646 21.5017L19.5574 21.5154L19.5571 21.5163L19.5495 21.5308L19.5463 21.537L19.5419 21.5454L19.5351 21.5585L19.5343 21.56L19.5267 21.5746L19.5238 21.5801L19.519 21.5892L19.5124 21.6017L19.5113 21.6039L19.5036 21.6185L19.501 21.6232L19.4958 21.6331L19.4896 21.6449L19.4881 21.6478L19.4803 21.6624L19.4781 21.6666L19.4725 21.6772L19.4665 21.6882L19.4646 21.6918L19.4567 21.7065L19.4549 21.7099L19.4488 21.7213L19.4432 21.7317L19.433 21.7507L19.4314 21.7534L19.425 21.7654L19.4197 21.7752L19.417 21.7801L19.4089 21.7948L19.4078 21.797L19.4009 21.8097L19.3959 21.8187L19.3928 21.8244L19.3847 21.8392L19.3839 21.8406L19.3766 21.854L19.3719 21.8624L19.3684 21.8688L19.3602 21.8836L19.3598 21.8842L19.352 21.8984L19.3477 21.9061L19.3438 21.9132L19.3355 21.9281L19.3174 21.9606V24.2992V51.93H19.2941L19.2936 52.0707C19.2936 52.1459 19.2786 52.2179 19.2514 52.2837C19.2245 52.3489 19.1855 52.4079 19.1376 52.4576V52.4584L19.1308 52.4652C19.0799 52.5162 19.0187 52.5575 18.9505 52.5856C18.8849 52.6127 18.813 52.6277 18.7377 52.6277C18.6624 52.6277 18.5904 52.6127 18.5248 52.5857C18.4568 52.5575 18.3955 52.5162 18.3446 52.4652L18.344 52.4646C18.2931 52.4137 18.2519 52.3523 18.2238 52.284C18.1968 52.2183 18.1818 52.1461 18.1818 52.0707V51.93H18.158V21.9823L18.1377 21.9483C17.9633 21.6569 17.8118 21.3911 17.6756 21.134C17.5396 20.8769 17.419 20.6284 17.3064 20.3715L17.2974 20.3508L17.318 20.3411C17.4879 20.2611 17.6581 20.1917 17.8278 20.1335C17.9955 20.0761 18.1634 20.0293 18.3309 19.9939L18.3503 19.9898L18.3574 20.0083C18.3964 20.1097 18.43 20.1946 18.465 20.2801C18.5002 20.3665 18.5375 20.4554 18.5832 20.5637L18.5924 20.5853V20.5853L18.7095 20.8622L18.8405 20.5659L18.843 20.5601L18.8456 20.5544L18.8481 20.5486L18.8507 20.5429L18.8532 20.5371L18.8538 20.5358L18.8557 20.5314L18.8582 20.5257L18.8607 20.52L18.8632 20.5143L18.8657 20.5085L18.8669 20.5058L18.8682 20.5028L18.8707 20.4971L18.8732 20.4914L18.8757 20.4857L18.8782 20.48L18.8799 20.4759L18.8806 20.4743L18.8831 20.4686L18.8856 20.463L18.8881 20.4573L18.8905 20.4516L18.8929 20.4462L18.893 20.446L18.8955 20.4404L18.8979 20.4346L18.9003 20.429L18.9028 20.4233L18.9052 20.4177L18.9058 20.4165L18.9077 20.412L18.9101 20.4064L18.9125 20.4007L18.915 20.3951L18.9173 20.3895L18.9185 20.3869L18.9198 20.3839L18.9222 20.3782L18.9246 20.3727L18.927 20.367L18.9294 20.3614L18.9311 20.3575L18.9318 20.3558L18.9342 20.3502L18.9365 20.3446L18.939 20.339L18.9413 20.3335L18.9435 20.3281L18.9437 20.3279L18.946 20.3223L18.9484 20.3167L18.9507 20.3111L18.9532 20.3056L18.9555 20.3L18.956 20.2988L18.9578 20.2945L18.9602 20.2889L18.9625 20.2833L18.9649 20.2777L18.9672 20.2723L18.9683 20.2696L18.9695 20.2667L18.9718 20.2612L18.9741 20.2556L18.9764 20.2501L18.9788 20.2446L18.9805 20.2406L18.9811 20.2391L18.9834 20.2336L18.9856 20.228L18.988 20.2225L18.9903 20.2171L18.9925 20.2116V20.2116L18.9948 20.2061L18.9971 20.2005L18.9995 20.195L19.0017 20.1895L19.004 20.184L19.0045 20.1827L19.0063 20.1785L19.0086 20.173L19.0108 20.1675L19.0131 20.162L19.0153 20.1565L19.0164 20.154L19.0176 20.1511L19.0198 20.1456L19.0221 20.14L19.0243 20.1346L19.0266 20.1291L19.0282 20.1252L19.0288 20.1237L19.0311 20.1182L19.0333 20.1127L19.0355 20.1073L19.0377 20.1019L19.0399 20.0966L19.04 20.0964L19.0422 20.0909L19.0444 20.0855L19.0466 20.0801L19.0488 20.0746L19.051 20.0693L19.0514 20.0682L19.0531 20.0638L19.0553 20.0584L19.0575 20.053L19.0597 20.0475L19.0618 20.0422L19.0628 20.0398L19.0641 20.0368L19.0663 20.0314L19.0684 20.0259L19.0705 20.0206L19.0727 20.0152L19.0742 20.0115L19.0748 20.0099L19.077 20.0045L19.0791 19.9991L19.0813 19.9938L19.0834 19.9883L19.0854 19.9833L19.0855 19.983L19.0876 19.9776L19.0898 19.9723L19.0919 19.9669L19.094 19.9616L19.0982 19.951L19.1003 19.9456L19.1023 19.9403L19.1045 19.935L19.1066 19.9297L19.1075 19.9273L19.1087 19.9244L19.1107 19.9191L19.1128 19.9138L19.1149 19.9084L19.117 19.9031L19.1185 19.8993L19.119 19.8979L19.1211 19.8926L19.1232 19.8873L19.1251 19.882L19.1272 19.8768L19.1292 19.8715L19.1313 19.8663L19.1334 19.861L19.1393 19.8456C19.2783 19.4859 19.3903 19.1515 19.4738 18.841C19.5039 18.7307 19.5305 18.6235 19.5536 18.5195L19.5539 18.5182L19.5547 18.5144L19.5566 18.5058L19.5586 18.4971L19.5588 18.4958L19.5604 18.4885L19.5623 18.4798L19.5637 18.4736L19.5642 18.4712L19.566 18.4626L19.5678 18.454L19.5684 18.4515L19.5696 18.4453L19.5714 18.4368L19.5729 18.4294L19.5732 18.4282L19.575 18.4198L19.5767 18.4111L19.5774 18.4075L19.5784 18.4027L19.5818 18.3857H19.5819L19.5835 18.3772L19.5851 18.3688L19.5862 18.3639L19.5869 18.3603L19.5885 18.3519L19.59 18.3435L19.5916 18.3351L19.5932 18.3267L19.5944 18.3208L19.5948 18.3183L19.5963 18.31L19.5979 18.3017L19.5984 18.2994L19.6022 18.278L19.6024 18.2767L19.6039 18.2684L19.6054 18.2602C19.6092 18.2382 19.6129 18.2162 19.6164 18.1945L19.6166 18.1936L19.6177 18.1864L19.6203 18.1701L19.6215 18.1621L19.6277 18.1217L19.6288 18.1137C19.6349 18.0711 19.6404 18.0291 19.6453 17.9875C19.6521 17.9284 19.6576 17.8707 19.6617 17.8143L19.6617 17.8132L19.6646 17.769L19.665 17.7617L19.6658 17.7471L19.6662 17.7399L19.6666 17.7326L19.6669 17.7254L19.6681 17.6966L19.6684 17.6895L19.6686 17.6836V17.6823L19.6689 17.6752L19.6692 17.6652L19.6693 17.661L19.6695 17.654L19.6698 17.6398L19.6699 17.6328L19.67 17.629L19.6701 17.6258L19.6701 17.6188L19.6702 17.6118L19.6703 17.611L19.6704 17.5979V17.593V17.591V17.584V17.5771V17.5752V17.5703V17.5633V17.5575V17.5565L19.6703 17.5497L19.6702 17.5428L19.6702 17.5399L19.6701 17.536L19.6701 17.5292L19.6699 17.5225L19.6698 17.5215C19.6621 17.1246 19.5747 16.8016 19.4078 16.5528C19.2414 16.3048 18.9952 16.1296 18.6691 16.0275L18.6361 16.0172L18.6017 16.0236L18.5924 16.0253C18.2875 16.0845 18.0606 16.2272 17.9118 16.4531C17.7604 16.6829 17.6887 16.9997 17.6965 17.4031C17.6998 17.5784 17.7191 17.7714 17.7539 17.9819C17.7887 18.1923 17.8395 18.4205 17.9059 18.6663L17.9121 18.6889L17.8893 18.6949C17.7168 18.7403 17.5441 18.7942 17.3719 18.8564C17.2004 18.9184 17.0287 18.9889 16.8576 19.0678L16.8329 19.0793L16.8254 19.053Z" fill="#080607"/>
<path fill-rule="evenodd" clip-rule="evenodd" d="M13.0793 21.3217C13.9753 20.1854 15.008 19.2746 16.0805 18.6746C16.5998 18.3838 17.1284 18.1663 17.6547 18.0317C18.1672 17.9006 18.678 17.8481 19.1761 17.8831C19.6902 17.9193 20.192 18.0491 20.6697 18.2824C21.1265 18.5056 21.5617 18.8235 21.9649 19.2448C24.1098 21.4861 24.516 27.1841 24.908 32.6835C25.1926 36.6773 25.4699 40.5663 26.3992 42.9431C27.1396 44.8368 28.2958 45.7679 30.2041 45.0186C30.7131 44.8187 31.2314 44.4898 31.749 44.0585C32.3011 43.5987 32.8526 43.0222 33.392 42.3618C33.9662 41.6587 34.5271 40.8597 35.0602 40.0049C35.6245 39.0999 36.1578 38.1322 36.6424 37.1493L36.6572 37.1192L36.6473 37.0865C36.3669 36.1602 36.1458 35.1895 35.99 34.2226C35.8326 33.2457 35.7416 32.2725 35.7231 31.3524C35.7089 30.6456 35.7374 29.9707 35.8112 29.3507C35.8826 28.751 35.9965 28.2016 36.1554 27.7233C36.3179 27.234 36.5271 26.8203 36.7855 26.5049C37.0317 26.2045 37.3226 25.993 37.6601 25.8905C37.732 25.8687 37.8065 25.8516 37.8834 25.8396C37.959 25.8279 38.037 25.8211 38.1169 25.8195C38.316 25.8155 38.5004 25.8303 38.6705 25.8626C38.8445 25.8958 39.0039 25.9474 39.1487 26.0162C39.3503 26.112 39.5251 26.2419 39.6743 26.4023C39.8276 26.5671 39.9539 26.7643 40.0548 26.9901C40.1549 27.214 40.2303 27.4661 40.2826 27.7426C40.3361 28.0262 40.3654 28.3358 40.3721 28.6676C40.3934 29.7326 40.1825 31.0209 39.7951 32.4115C39.3873 33.8757 38.7838 35.4536 38.0505 37.004L38.0361 37.0342L38.0461 37.066C38.3514 38.0372 38.7142 38.943 39.1264 39.7045C39.5039 40.4018 39.9225 40.9784 40.376 41.3733C40.5251 41.5031 40.6783 41.6138 40.8353 41.7029C40.9876 41.7896 41.1437 41.8562 41.3028 41.9005C41.4683 41.9467 41.6369 41.9691 41.8085 41.9656C41.9752 41.9622 42.1452 41.9342 42.3178 41.8796C43.4988 41.5069 44.9944 39.3631 45.871 38.1067C45.9696 37.9653 46.0608 37.8346 46.1391 37.7241L46.1394 37.7236C46.8943 36.6586 47.4714 35.8442 48.0512 35.4621C49.5824 34.4529 52.2386 37.9865 54.3277 41.1695C54.8497 41.9647 55.3339 42.7342 55.7567 43.406C56.2359 44.1674 56.6365 44.8039 56.9188 45.2034C56.9682 45.2669 57.0028 45.3379 57.023 45.4117C57.0439 45.4881 57.0493 45.5675 57.0397 45.6447C57.0301 45.7218 57.0054 45.7972 56.9663 45.8659C56.9287 45.9322 56.8776 45.9923 56.814 46.0419L56.808 46.0464C56.7447 46.0945 56.6748 46.128 56.6025 46.1473C56.5274 46.1674 56.4495 46.1725 56.3736 46.163C56.297 46.1535 56.222 46.1288 56.1536 46.0901C56.0879 46.0527 56.0281 46.0019 55.9785 45.9386L55.9776 45.9372C55.2689 44.8872 54.6415 43.9303 54.083 43.0645C53.5224 42.1953 53.0361 41.4259 52.6054 40.7445C52.003 39.7912 51.4407 39.0307 50.9514 38.4384C50.2516 37.5914 49.7011 37.0886 49.3941 36.8566C48.4716 36.3025 47.9776 37.0075 46.5635 39.0255L45.9043 39.9642C45.3683 40.723 44.8464 41.3285 44.3407 41.797C43.8078 42.2907 43.2924 42.6325 42.7969 42.8415C42.5294 42.9543 42.2676 43.0283 42.0124 43.0663C41.7489 43.1055 41.4919 43.1067 41.2419 43.073C40.9991 43.0404 40.7622 42.9749 40.5322 42.8796C40.2954 42.7817 40.0654 42.652 39.8429 42.4942C39.3453 42.1413 38.8847 41.6481 38.4659 41.0519C38.0195 40.4162 37.62 39.6628 37.2731 38.8367L37.2045 38.6733L37.1192 38.8286C36.6144 39.7488 36.0707 40.6377 35.5031 41.4629C34.9552 42.2595 34.3852 42.9966 33.8065 43.6451C33.2584 44.2595 32.7027 44.7942 32.1518 45.224C31.6272 45.6332 31.1061 45.9481 30.5986 46.1469C27.9105 47.2007 26.3525 45.9459 25.3966 43.4972C24.3203 40.7402 24.0098 36.4669 23.7054 32.2779C23.3334 27.1588 22.9705 22.1653 21.2325 20.234C20.9007 19.8654 20.5431 19.5905 20.1677 19.4007C19.7745 19.2018 19.3614 19.0959 18.9376 19.0727C18.5333 19.0507 18.1197 19.1041 17.7048 19.224C17.2748 19.3483 16.8428 19.5442 16.4181 19.8015C15.5279 20.3408 14.6674 21.1514 13.9183 22.1376C13.1776 23.1126 12.5457 24.2592 12.1013 25.485L12.0988 25.4925C12.0779 25.5706 12.0424 25.641 11.9962 25.7013C11.9482 25.764 11.8885 25.8161 11.8211 25.8549C11.754 25.8937 11.6789 25.9196 11.6005 25.9298C11.525 25.9396 11.4462 25.9351 11.3682 25.9141C11.2902 25.8931 11.2198 25.8575 11.1595 25.8112C11.0969 25.7631 11.0449 25.7032 11.0062 25.6358C10.9677 25.5689 10.942 25.4944 10.9318 25.4163C10.9217 25.3413 10.9259 25.2629 10.9463 25.1852L10.9469 25.1831C11.4708 23.7356 12.211 22.4226 13.0793 21.3217ZM38.8437 31.3974C39.1128 30.351 39.2581 29.4219 39.2484 28.6964C39.2456 28.4882 39.23 28.2959 39.201 28.1216C39.1725 27.9515 39.1314 27.7987 39.0767 27.6652C39.0182 27.5223 38.9442 27.4007 38.8541 27.3027C38.7667 27.2075 38.6636 27.1343 38.5448 27.0853C38.4861 27.0611 38.4233 27.0429 38.3568 27.0311C38.2908 27.0193 38.2212 27.0138 38.1481 27.0148C38.1231 27.0151 38.0982 27.0167 38.0739 27.0193C38.0497 27.022 38.0259 27.0259 38.0029 27.0308C37.8129 27.0717 37.6502 27.1873 37.5136 27.3665C37.3691 27.5561 37.2537 27.8167 37.166 28.1352C37.0851 28.4287 37.0268 28.7735 36.9899 29.1585C36.9519 29.5553 36.9367 29.9949 36.943 30.4649C36.952 31.1296 37.0041 31.8569 37.0956 32.6121C37.1867 33.3634 37.3168 34.1422 37.4823 34.9142L37.5402 35.1847L37.6451 34.929C38.1541 33.6895 38.5652 32.4805 38.8437 31.3974Z" fill="#080607"/>
</svg>
